<?xml version="1.0" encoding="UTF-8"?><svg id="Layer_1" xmlns="http://www.w3.org/2000/svg" viewBox="0 0 443.68 345.08"><defs><style>.cls-1{fill:#ec2024;stroke-width:2.02px;}.cls-1,.cls-2{stroke:#cc9030;stroke-miterlimit:10;}.cls-3{fill:#c6832d;}.cls-2{fill:#cc9030;stroke-width:.43px;}</style></defs><path class="cls-2" d="M222.29,102.54c-28.16,0-51.08-22.95-51.08-51.17S194.12.21,222.29.21s51.08,22.95,51.08,51.17-22.91,51.17-51.08,51.17ZM222.29,2.28c-27.02,0-49.01,22.02-49.01,49.1s21.99,49.1,49.01,49.1,49.01-22.02,49.01-49.1S249.31,2.28,222.29,2.28Z"/><path class="cls-2" d="M160.32,180.45c-27.94,0-50.68-22.77-50.68-50.77s22.74-50.77,50.68-50.77,50.68,22.77,50.68,50.77-22.74,50.77-50.68,50.77ZM160.32,80.97c-26.81,0-48.63,21.85-48.63,48.71s21.81,48.71,48.63,48.71,48.63-21.85,48.63-48.71-21.81-48.71-48.63-48.71Z"/><path class="cls-2" d="M267.93,124.89c-27.77-2.81-48.07-27.73-45.25-55.55,2.82-27.82,27.7-48.16,55.47-45.34,27.77,2.81,48.07,27.73,45.25,55.55-2.82,27.82-27.7,48.16-55.47,45.34ZM277.95,26.04c-26.64-2.7-50.52,16.82-53.23,43.51-2.71,26.69,16.77,50.6,43.42,53.3,26.64,2.7,50.52-16.82,53.23-43.51,2.71-26.69-16.77-50.6-43.42-53.3Z"/><path class="cls-2" d="M279.31,180.21c-27.73-2.81-47.99-27.69-45.18-55.46,2.81-27.77,27.66-48.08,55.39-45.27,27.73,2.81,47.99,27.69,45.18,55.46-2.81,27.77-27.66,48.08-55.39,45.27ZM289.32,81.51c-26.6-2.7-50.44,16.79-53.14,43.44-2.7,26.65,16.74,50.52,43.35,53.22,26.6,2.7,50.44-16.79,53.14-43.44,2.7-26.65-16.74-50.52-43.35-53.22Z"/><path class="cls-2" d="M189.86,222.38c-27.62-2.8-47.81-27.59-45.01-55.25,2.8-27.67,27.56-47.9,55.18-45.1,27.62,2.8,47.81,27.59,45.01,55.25-2.8,27.67-27.56,47.9-55.18,45.1ZM199.82,124.05c-26.5-2.69-50.25,16.73-52.94,43.28-2.69,26.55,16.68,50.33,43.18,53.02,26.5,2.69,50.25-16.73,52.94-43.28,2.69-26.55-16.68-50.33-43.18-53.02Z"/><path class="cls-2" d="M167.29,124.93c-27.34-2.77-47.33-27.31-44.55-54.69,2.78-27.39,27.28-47.41,54.62-44.64,27.34,2.77,47.33,27.31,44.55,54.69-2.78,27.39-27.28,47.41-54.62,44.64ZM177.16,27.6c-26.23-2.66-49.74,16.56-52.41,42.84-2.66,26.28,16.51,49.82,42.75,52.48,26.23,2.66,49.74-16.56,52.41-42.84,2.66-26.28-16.51-49.82-42.75-52.48Z"/><path class="cls-2" d="M244.49,222.2c-27.73-2.81-47.99-27.69-45.18-55.46,2.81-27.77,27.66-48.08,55.39-45.27,27.73,2.81,47.99,27.69,45.18,55.46-2.81,27.77-27.66,48.08-55.39,45.27ZM254.49,123.5c-26.6-2.7-50.44,16.79-53.14,43.44-2.7,26.65,16.74,50.52,43.35,53.22,26.6,2.7,50.44-16.79,53.14-43.44,2.7-26.65-16.74-50.52-43.35-53.22Z"/><path class="cls-1" d="M211.28,73.92c0,22.61,11.07,40.94,11.07,40.94,0,0,11.05-18.33,11.05-40.94,0-22.61-11.07-40.94-11.07-40.94,0,0-11.05,18.33-11.05,40.94Z"/><path class="cls-1" d="M247.94,80.96c-17.67,14.1-25.1,34.18-25.1,34.18,0,0,21.23-2.79,38.9-16.9,17.67-14.1,25.1-34.18,25.1-34.18,0,0-21.23,2.79-38.9,16.89Z"/><path class="cls-1" d="M265.3,114.01c-22.05-5.02-42.37,1.69-42.37,1.69,0,0,15.42,14.85,37.46,19.87,22.05,5.02,42.37-1.69,42.37-1.69,0,0-15.42-14.85-37.46-19.87Z"/><path class="cls-1" d="M250.28,148.19c-9.82-20.36-27.75-32.07-27.75-32.07,0,0-2,21.32,7.83,41.68,9.82,20.36,27.75,32.07,27.75,32.07,0,0,2-21.32-7.83-41.68Z"/><path class="cls-1" d="M214.2,157.77c9.79-20.38,7.76-41.69,7.76-41.69,0,0-17.91,11.73-27.7,32.11-9.79,20.38-7.76,41.69-7.76,41.69,0,0,17.91-11.73,27.7-32.11Z"/><path class="cls-1" d="M184.22,135.53c22.04-5.05,37.43-19.93,37.43-19.93,0,0-20.34-6.68-42.38-1.63-22.04,5.05-37.43,19.93-37.43,19.93,0,0,20.34,6.68,42.38,1.63Z"/><path class="cls-1" d="M182.9,98.23c17.69,14.08,38.92,16.83,38.92,16.83,0,0-7.46-20.07-25.15-34.14-17.69-14.08-38.92-16.83-38.92-16.83,0,0,7.46,20.07,25.15,34.14Z"/><path class="cls-1" d="M211.24,73.93c.03,22.61,11.11,40.93,11.11,40.93,0,0,11.04-18.34,11.01-40.96-.03-22.61-11.11-40.92-11.11-40.92,0,0-11.04,18.34-11.01,40.95Z"/><path class="cls-3" d="M11.37,300.78H0v-1.75c.49-.31,1.02-.58,1.59-.8.57-.23,1.13-.41,1.68-.53l11.87-29.69h3.41l11.55,29.69c.61.12,1.23.3,1.84.53.61.23,1.15.5,1.61.8v1.75h-14.41v-1.75c.58-.28,1.21-.54,1.89-.78.67-.25,1.32-.43,1.93-.55l-2.67-7.32h-10.22l-2.72,7.32c1.41.18,2.75.63,4,1.33v1.75ZM11.18,287.39h8.15l-2.99-8.79-.87-3.96h-.09l-1.01,4.05-3.18,8.7Z"/><path class="cls-3" d="M51.92,268.56h12.33v1.75c-.52.34-1.12.62-1.79.85-.68.23-1.29.39-1.84.48l-8.75,11.09c.71.98,1.53,2.09,2.49,3.34.95,1.24,1.96,2.53,3.04,3.87,1.07,1.33,2.18,2.69,3.31,4.05,1.13,1.37,2.24,2.66,3.31,3.89l2.21,1.33v1.57h-8.01l-1.84-1.29c-.74-.92-1.51-1.94-2.32-3.06-.81-1.12-1.62-2.29-2.42-3.5-.8-1.21-1.58-2.43-2.35-3.66-.77-1.23-1.49-2.42-2.16-3.59h-1.98v12.01c.67.12,1.29.31,1.84.55.55.25,1.03.51,1.43.78v1.75h-13.95v-1.75c.61-.31,1.24-.58,1.89-.8.64-.23,1.27-.41,1.89-.53v-26.05c-.71-.09-1.39-.26-2.05-.51-.66-.25-1.24-.52-1.73-.83v-1.75h13.95v1.75c-.4.25-.88.49-1.45.74-.57.25-1.17.45-1.82.6v11.69l2.72-.64,7.41-11.05c-.61-.12-1.22-.31-1.82-.58-.6-.26-1.11-.51-1.54-.76v-1.75Z"/><path class="cls-3" d="M73.46,296.96c.34.34.81.65,1.43.94.61.29,1.43.44,2.44.44,1.69,0,3.09-.44,4.21-1.31s1.68-2.09,1.68-3.66c0-1.13-.36-2.09-1.08-2.85-.72-.77-1.63-1.47-2.74-2.12-1.1-.64-2.29-1.28-3.54-1.91-1.26-.63-2.44-1.37-3.54-2.23-1.1-.86-2.02-1.88-2.74-3.06-.72-1.18-1.08-2.65-1.08-4.4,0-1.5.28-2.81.83-3.91.55-1.1,1.31-2.02,2.28-2.74.97-.72,2.11-1.26,3.43-1.61,1.32-.35,2.75-.53,4.28-.53,1.87,0,3.61.13,5.22.39s3.06.67,4.35,1.22c-.03.61-.08,1.32-.16,2.12-.08.8-.18,1.59-.3,2.37-.12.78-.25,1.52-.39,2.21-.14.69-.27,1.27-.39,1.73h-1.89l-2.13-6.31c-.37-.18-.92-.35-1.64-.51-.72-.15-1.47-.23-2.24-.23-1.29,0-2.39.34-3.28,1.01s-1.34,1.66-1.34,2.95c0,1.17.37,2.16,1.11,2.97.74.81,1.66,1.56,2.77,2.23,1.11.67,2.32,1.34,3.62,2,1.31.66,2.52,1.42,3.62,2.28s2.03,1.86,2.77,3.01c.74,1.15,1.11,2.57,1.11,4.26,0,3.07-1.04,5.44-3.11,7.11-2.07,1.67-5.12,2.51-9.14,2.51-.98,0-1.97-.06-2.97-.18-1-.12-1.94-.29-2.83-.51-.89-.21-1.68-.45-2.37-.69-.69-.24-1.2-.51-1.54-.78.03-.71.11-1.46.23-2.28.12-.81.25-1.62.39-2.44.14-.81.28-1.59.44-2.32.15-.74.31-1.38.46-1.93h1.89l1.89,6.77Z"/><path class="cls-3" d="M103.28,300.78h-11.37v-1.75c.49-.31,1.02-.58,1.59-.8.57-.23,1.13-.41,1.68-.53l11.87-29.69h3.41l11.55,29.69c.61.12,1.23.3,1.84.53.61.23,1.15.5,1.61.8v1.75h-14.41v-1.75c.58-.28,1.21-.54,1.89-.78.67-.25,1.32-.43,1.93-.55l-2.67-7.32h-10.22l-2.72,7.32c1.41.18,2.75.63,4,1.33v1.75ZM103.1,287.39h8.15l-2.99-8.79-.87-3.96h-.09l-1.01,4.05-3.18,8.7Z"/><path class="cls-3" d="M148.57,297.7c1.41.18,2.75.63,4,1.33v1.75h-14.22v-1.75c.49-.28,1.01-.53,1.56-.76.55-.23,1.13-.42,1.75-.57v-26.05c-.71-.15-1.33-.35-1.86-.6-.54-.25-1.02-.49-1.45-.74v-1.75h24.07c0,.61-.03,1.28-.09,2-.06.72-.13,1.46-.21,2.21-.08.75-.17,1.49-.28,2.21-.11.72-.22,1.39-.34,2h-1.89l-2.12-5.43h-8.93v12.1h6.31l2.07-3.54h1.38c.12.8.21,1.64.25,2.53.05.89.07,1.78.07,2.67-.03.92-.07,1.81-.12,2.67-.05.86-.12,1.63-.21,2.3h-1.38l-2.07-3.64h-6.31v11.05Z"/><path class="cls-3" d="M165.69,284.67c0-2.39.34-4.61,1.01-6.65.67-2.04,1.67-3.8,2.99-5.29s2.95-2.65,4.88-3.48c1.93-.83,4.16-1.24,6.67-1.24s4.74.41,6.67,1.24c1.93.83,3.55,1.99,4.86,3.48,1.3,1.49,2.29,3.25,2.97,5.29.67,2.04,1.01,4.26,1.01,6.65s-.34,4.61-1.01,6.65c-.68,2.04-1.67,3.8-2.97,5.29-1.3,1.49-2.92,2.65-4.86,3.47-1.93.83-4.16,1.24-6.67,1.24s-4.74-.41-6.67-1.24c-1.93-.83-3.56-1.99-4.88-3.47s-2.32-3.25-2.99-5.29c-.68-2.04-1.01-4.26-1.01-6.65ZM173.51,284.67c0,1.96.15,3.78.46,5.45.31,1.67.79,3.12,1.45,4.33.66,1.21,1.5,2.16,2.53,2.85,1.03.69,2.26,1.04,3.71,1.04,1.32,0,2.44-.34,3.36-1.04.92-.69,1.67-1.64,2.25-2.85.58-1.21,1-2.65,1.27-4.33.26-1.67.39-3.49.39-5.45s-.15-3.78-.44-5.46c-.29-1.67-.75-3.11-1.38-4.33-.63-1.21-1.46-2.16-2.49-2.85-1.03-.69-2.28-1.04-3.75-1.04s-2.59.35-3.54,1.04c-.95.69-1.71,1.64-2.28,2.85-.57,1.21-.97,2.65-1.2,4.33-.23,1.67-.35,3.49-.35,5.46Z"/><path class="cls-3" d="M198.92,268.56h14.18v1.75c-1.01.64-2.18,1.09-3.5,1.33v17.72c0,1.5.17,2.76.51,3.77.34,1.01.83,1.83,1.47,2.46.64.63,1.42,1.08,2.32,1.36.9.28,1.92.42,3.06.42,1.01,0,1.94-.15,2.78-.44s1.58-.76,2.21-1.4,1.11-1.49,1.45-2.53c.34-1.04.51-2.33.51-3.87v-17.26c-.71-.15-1.43-.37-2.19-.64-.75-.28-1.37-.58-1.86-.92v-1.75h11.41v1.75c-.55.4-1.17.72-1.84.97-.67.25-1.33.45-1.98.6v17.3c0,3.93-1.04,6.91-3.11,8.95-2.07,2.04-4.99,3.06-8.77,3.06-4.11,0-7.29-.92-9.53-2.76-2.24-1.84-3.36-4.79-3.36-8.84v-17.95c-.61-.09-1.26-.25-1.93-.48s-1.29-.51-1.84-.85v-1.75Z"/><path class="cls-3" d="M254.06,268.56h11.41v1.79c-.58.46-1.23.87-1.93,1.22-.71.35-1.37.62-1.98.8v28.95h-3.91l-16.25-23.47-1.84-3.54h-.14l.42,3.68v19.19c.61.15,1.3.41,2.05.76.75.35,1.39.71,1.91,1.08v1.75h-11.37v-1.75c.55-.37,1.16-.71,1.82-1.03.66-.32,1.34-.59,2.05-.8v-25.09c-.61-.24-1.23-.52-1.84-.83-.61-.31-1.17-.63-1.66-.97v-1.75h9.94l13.21,19.15,2.12,3.96h.18l-.23-3.95v-15.34c-.74-.25-1.45-.54-2.14-.9-.69-.35-1.3-.73-1.82-1.12v-1.79Z"/><path class="cls-3" d="M267.31,300.78v-1.75c.52-.31,1.1-.58,1.75-.8.64-.23,1.32-.41,2.02-.53v-26.05c-.71-.15-1.39-.35-2.05-.58-.66-.23-1.24-.48-1.73-.76v-1.75h5.34c.52,0,1.17-.02,1.93-.05.77-.03,1.57-.07,2.39-.12s1.63-.09,2.42-.14c.78-.05,1.45-.07,2-.07,2.67,0,5.06.35,7.16,1.06s3.88,1.73,5.34,3.08c1.46,1.35,2.58,3.02,3.36,5.02.78,1.99,1.17,4.3,1.17,6.9s-.37,4.86-1.1,6.95c-.74,2.09-1.84,3.87-3.31,5.34s-3.34,2.62-5.59,3.43c-2.26.81-4.9,1.22-7.94,1.22-.4,0-.94-.02-1.61-.07-.67-.04-1.4-.09-2.16-.14-.77-.05-1.53-.09-2.3-.14-.77-.05-1.44-.07-2.03-.07h-5.06ZM280.8,271.19c-.55,0-1.1.02-1.66.05s-1.03.08-1.43.14v26.65c.12.03.34.05.64.07.31.02.62.03.94.05.32.02.64.03.94.05s.54.02.69.02c1.78,0,3.29-.37,4.53-1.11,1.24-.74,2.26-1.73,3.06-2.99.8-1.26,1.38-2.73,1.75-4.42.37-1.69.55-3.48.55-5.38,0-1.69-.19-3.31-.58-4.88-.38-1.56-.97-2.96-1.77-4.19-.8-1.23-1.83-2.21-3.11-2.95s-2.8-1.11-4.58-1.11Z"/><path class="cls-3" d="M309.15,300.78h-11.37v-1.75c.49-.31,1.02-.58,1.59-.8.57-.23,1.13-.41,1.68-.53l11.88-29.69h3.41l11.55,29.69c.61.12,1.23.3,1.84.53.61.23,1.15.5,1.61.8v1.75h-14.41v-1.75c.58-.28,1.21-.54,1.89-.78s1.32-.43,1.93-.55l-2.67-7.32h-10.22l-2.71,7.32c1.41.18,2.75.63,4,1.33v1.75ZM308.97,287.39h8.15l-2.99-8.79-.87-3.96h-.09l-1.01,4.05-3.18,8.7Z"/><path class="cls-3" d="M350.43,300.78h-15.83v-1.75c.61-.25,1.31-.5,2.09-.76.78-.26,1.57-.45,2.37-.57v-26.14h-5.34l-2.95,7.87h-1.89c-.12-.61-.25-1.39-.37-2.35-.12-.95-.23-1.93-.32-2.95s-.17-2.02-.23-3.01-.09-1.85-.09-2.55h29.32c0,.74-.03,1.6-.09,2.58-.06.98-.14,1.98-.23,2.99s-.2,1.99-.32,2.92c-.12.94-.25,1.73-.37,2.37h-1.93l-2.95-7.87h-5.34v26.14c.8.15,1.59.34,2.37.55.78.21,1.48.48,2.09.78v1.75Z"/><path class="cls-3" d="M373.63,300.78h-14.36v-1.75c1.23-.67,2.47-1.12,3.73-1.33v-26.05c-.61-.09-1.26-.26-1.93-.51-.68-.25-1.27-.52-1.79-.83v-1.75h14.36v1.75c-.55.34-1.16.62-1.82.85-.66.23-1.3.39-1.91.48v26.05c.61.12,1.25.29,1.91.51.66.21,1.27.49,1.82.83v1.75Z"/><path class="cls-3" d="M376.81,284.67c0-2.39.34-4.61,1.01-6.65.67-2.04,1.67-3.8,2.99-5.29s2.95-2.65,4.88-3.48c1.93-.83,4.16-1.24,6.67-1.24s4.74.41,6.67,1.24c1.93.83,3.55,1.99,4.86,3.48,1.3,1.49,2.29,3.25,2.97,5.29.67,2.04,1.01,4.26,1.01,6.65s-.34,4.61-1.01,6.65c-.68,2.04-1.67,3.8-2.97,5.29-1.3,1.49-2.92,2.65-4.86,3.47-1.93.83-4.16,1.24-6.67,1.24s-4.74-.41-6.67-1.24c-1.93-.83-3.56-1.99-4.88-3.47s-2.32-3.25-2.99-5.29c-.68-2.04-1.01-4.26-1.01-6.65ZM384.63,284.67c0,1.96.15,3.78.46,5.45.31,1.67.79,3.12,1.45,4.33.66,1.21,1.5,2.16,2.53,2.85,1.03.69,2.26,1.04,3.71,1.04,1.32,0,2.44-.34,3.36-1.04.92-.69,1.67-1.64,2.25-2.85.58-1.21,1-2.65,1.27-4.33.26-1.67.39-3.49.39-5.45s-.15-3.78-.44-5.46c-.29-1.67-.75-3.11-1.38-4.33-.63-1.21-1.46-2.16-2.49-2.85-1.03-.69-2.28-1.04-3.75-1.04s-2.59.35-3.54,1.04c-.95.69-1.71,1.64-2.28,2.85-.57,1.21-.97,2.65-1.2,4.33-.23,1.67-.35,3.49-.35,5.46Z"/><path class="cls-3" d="M432.27,268.56h11.41v1.79c-.58.46-1.23.87-1.93,1.22-.71.35-1.37.62-1.98.8v28.95h-3.91l-16.25-23.47-1.84-3.54h-.14l.42,3.68v19.19c.61.15,1.3.41,2.05.76.75.35,1.39.71,1.91,1.08v1.75h-11.37v-1.75c.55-.37,1.16-.71,1.82-1.03.66-.32,1.34-.59,2.05-.8v-25.09c-.61-.24-1.23-.52-1.84-.83-.61-.31-1.17-.63-1.66-.97v-1.75h9.94l13.21,19.15,2.12,3.96h.18l-.23-3.95v-15.34c-.74-.25-1.45-.54-2.14-.9-.69-.35-1.3-.73-1.82-1.12v-1.79Z"/><path class="cls-3" d="M76.59,320.02c-.02.73-.05,1.47-.1,2.21-.05.74-.11,1.49-.21,2.24h-.71l-1.13-3.02h-5.99v7.28h4.48l1.07-2.03h.69c.11,1.81.11,3.66,0,5.55h-.69l-1.07-2.09h-4.48v7.67h6.32l1.35-3.3h.69c.13.77.22,1.55.27,2.34.05.79.06,1.58.03,2.39h-13.55v-.8c.64-.29,1.39-.51,2.25-.66v-16.29c-.37-.07-.74-.17-1.13-.29s-.76-.25-1.13-.4v-.8h13.02Z"/><path class="cls-3" d="M93.82,339.25h-5.88v-.69c.18-.11.41-.22.67-.34s.58-.22.95-.32v-6.35c0-.73-.03-1.39-.1-1.98-.06-.59-.18-1.08-.36-1.47-.17-.39-.43-.7-.76-.91-.33-.21-.76-.32-1.29-.32-.4,0-.77.08-1.11.25-.34.16-.64.38-.91.66-.27.27-.49.59-.69.93-.19.35-.34.71-.45,1.1v8.08c.29.09.57.19.84.29.27.1.53.22.78.37v.69h-5.91v-.69c.26-.13.54-.25.85-.36.31-.11.63-.21.96-.3v-10.8l-1.81-.22v-.71c.59-.26,1.19-.46,1.8-.62s1.21-.28,1.8-.37h.69v3.1h.03c.29-.86.79-1.59,1.5-2.2s1.58-.91,2.62-.91c.44,0,.86.05,1.26.14s.78.26,1.13.51.64.59.88,1.03c.24.44.41,1.01.52,1.7.33-1.01.86-1.82,1.59-2.45.73-.62,1.65-.93,2.75-.93.68,0,1.27.09,1.77.26.5.17.92.48,1.25.92s.57,1.04.73,1.79c.16.75.23,1.7.23,2.86v6.9c.62.11,1.23.33,1.81.66v.69h-5.91v-.69c.55-.29,1.09-.51,1.62-.66v-6.84c0-.66-.03-1.25-.1-1.76-.06-.51-.19-.95-.37-1.3s-.44-.63-.77-.82c-.33-.19-.77-.29-1.32-.29-.88,0-1.56.3-2.05.91-.49.6-.84,1.37-1.06,2.31v7.8c.64.18,1.24.4,1.79.66v.69Z"/><path class="cls-3" d="M109.42,344.75h-6.1v-.69c.62-.29,1.23-.51,1.81-.66v-16.29l-1.81-.22v-.71c.59-.26,1.19-.46,1.8-.62s1.21-.28,1.8-.37h.69v3.08h.03c.37-.93.88-1.68,1.54-2.24.66-.56,1.52-.84,2.58-.84,1.63,0,2.89.54,3.79,1.62s1.35,2.84,1.35,5.28c0,1.15-.15,2.2-.45,3.13s-.73,1.72-1.29,2.36c-.56.64-1.24,1.14-2.03,1.48s-1.68.52-2.65.52c-.68,0-1.21-.04-1.59-.12s-.81-.22-1.26-.43v4.37c.29.04.59.1.88.21.29.1.6.25.93.45v.69ZM110.88,326.89c-.9,0-1.61.28-2.14.85-.53.57-.91,1.35-1.13,2.33v7.69c.33.2.7.35,1.11.45s.95.15,1.61.15c.6,0,1.15-.16,1.64-.47.48-.31.9-.75,1.24-1.32.34-.57.6-1.23.78-1.99.18-.76.27-1.6.27-2.51,0-.75-.06-1.44-.18-2.07-.12-.63-.31-1.18-.58-1.65-.27-.47-.61-.83-1.04-1.09-.43-.26-.96-.38-1.58-.38Z"/><path class="cls-3" d="M119.15,332.38c0-1.15.15-2.17.45-3.06.3-.89.74-1.64,1.31-2.25.57-.61,1.25-1.08,2.05-1.4.8-.32,1.68-.48,2.65-.48,1.14,0,2.12.17,2.94.52.82.35,1.5.84,2.02,1.47s.91,1.39,1.15,2.27c.25.88.37,1.86.37,2.94,0,2.31-.59,4.08-1.76,5.33-1.17,1.25-2.75,1.87-4.73,1.87-1.1,0-2.05-.17-2.86-.51s-1.47-.82-2.01-1.46-.93-1.39-1.2-2.28c-.27-.89-.4-1.87-.4-2.95ZM121.79,332.38c0,.82.08,1.6.23,2.33.16.73.4,1.37.74,1.91s.78.97,1.33,1.28c.55.31,1.21.47,1.98.47.99,0,1.8-.49,2.43-1.46.63-.97.95-2.48.95-4.53,0-.84-.08-1.63-.23-2.35-.16-.72-.4-1.36-.73-1.9-.33-.54-.75-.97-1.26-1.28-.51-.31-1.13-.47-1.84-.47-1.08,0-1.95.49-2.61,1.46-.66.97-.99,2.48-.99,4.53Z"/><path class="cls-3" d="M138.38,339.58l-4.31-12.7c-.26-.09-.51-.19-.76-.29s-.48-.22-.7-.37v-.71h5.77v.69c-.26.15-.51.28-.77.4-.26.12-.52.22-.8.29l2.34,8.02.35,1.98h.05l.41-2.03,2.97-9.07.82-.28,3.16,9.37.49,2.01h.06l.41-2.01,2.12-8c-.2-.04-.43-.11-.7-.22-.27-.11-.54-.26-.81-.44v-.71h4.67v.71c-.38.26-.91.48-1.57.66l-3.9,12.37-1.46.33-2.72-7.78-.52-2.28h-.08l-.63,2.28-2.47,7.45-1.43.33Z"/><path class="cls-3" d="M164.82,337.33c-.15.31-.38.6-.69.88-.31.27-.67.51-1.07.71-.4.2-.84.36-1.32.48-.48.12-.96.18-1.46.18-1.08,0-2.03-.17-2.86-.51s-1.51-.82-2.06-1.46-.97-1.39-1.25-2.27c-.28-.88-.43-1.87-.43-2.97,0-2.34.54-4.13,1.62-5.36,1.08-1.23,2.61-1.84,4.59-1.84.64,0,1.27.09,1.9.26.62.17,1.18.46,1.66.87.49.4.88.94,1.18,1.61.3.67.45,1.5.45,2.49,0,.31-.01.63-.04.95s-.08.66-.15,1.03h-8.57c0,.77.1,1.49.29,2.16.19.67.48,1.25.87,1.75.38.5.87.88,1.46,1.17.59.28,1.27.43,2.06.43.64,0,1.29-.09,1.95-.27s1.15-.42,1.48-.71l.38.44ZM159.79,326.39c-1.04,0-1.84.35-2.39,1.06s-.88,1.95-.99,3.72h6.04c.02-.17.03-.33.04-.48,0-.16.01-.31.01-.45,0-1.17-.22-2.11-.66-2.8-.44-.7-1.13-1.04-2.06-1.04Z"/><path class="cls-3" d="M173.09,327.57c-.2.11-.45.33-.75.67-.3.34-.57.84-.81,1.5v8.16c.37.04.73.11,1.1.21.37.1.73.25,1.1.45v.69h-6.49v-.69c.33-.18.64-.32.93-.41s.59-.17.88-.25v-10.8l-1.81-.22v-.71c.59-.26,1.19-.46,1.81-.62s1.22-.28,1.79-.37h.69v2.91h.11c.17-.37.4-.73.7-1.1.3-.37.65-.7,1.04-.99.39-.29.82-.52,1.29-.67.47-.16.95-.21,1.44-.15.13.24.24.5.34.78s.2.58.29.89v.71h-3.66Z"/><path class="cls-3" d="M184.16,339.25h-6.1v-.69c.27-.15.56-.27.85-.37s.61-.2.96-.29v-10.8l-1.81-.22v-.71c.53-.22,1.11-.41,1.73-.58s1.25-.3,1.87-.41h.69v12.72c.37.09.7.19.99.29s.57.22.82.37v.69ZM179.35,320.84c0-.49.16-.89.48-1.18.32-.29.75-.44,1.28-.44s.95.15,1.26.44c.31.29.47.69.47,1.18s-.16.88-.47,1.17-.73.43-1.26.43-.96-.14-1.28-.43-.48-.67-.48-1.17Z"/><path class="cls-3" d="M201.06,339.25h-5.91v-.69c.49-.26,1.03-.48,1.62-.66v-6.51c0-1.39-.2-2.49-.6-3.3-.4-.81-1.14-1.21-2.2-1.21-.46,0-.88.08-1.28.25-.39.16-.74.39-1.04.67-.3.28-.56.6-.78.96s-.39.73-.52,1.11v8.02c.57.11,1.12.33,1.65.66v.69h-5.94v-.69c.46-.24,1.06-.46,1.81-.66v-10.8l-1.81-.22v-.71c.48-.2,1.03-.38,1.65-.55.62-.17,1.27-.31,1.95-.44h.69v3.08h.03c.38-.84.94-1.57,1.66-2.17s1.6-.91,2.62-.91c.73,0,1.39.09,1.96.26.58.17,1.06.48,1.44.92s.68,1.03.88,1.77c.2.74.3,1.68.3,2.82v6.95c.73.13,1.34.35,1.81.66v.69Z"/><path class="cls-3" d="M208.31,325.18c.99,0,1.82.1,2.5.29s1.25.49,1.7.89c1.08-.73,2.21-1.26,3.38-1.59.15.2.25.45.32.74.06.29.1.57.1.83l-.36.66h-2.88c.46.66.69,1.53.69,2.61,0,1.32-.46,2.39-1.39,3.21s-2.28,1.24-4.05,1.24c-.35,0-.63,0-.85-.03s-.47-.05-.74-.08c-.09.16-.2.35-.32.55-.12.2-.18.41-.18.63,0,.37.21.66.63.87.42.21.95.4,1.58.56.63.16,1.32.33,2.06.51.74.17,1.43.41,2.07.71.64.3,1.18.7,1.61,1.18.43.48.66,1.11.67,1.88.02.66-.13,1.25-.45,1.79s-.76.98-1.33,1.33c-.57.36-1.25.63-2.05.82s-1.67.29-2.62.29c-2,0-3.5-.34-4.52-1.02s-1.53-1.53-1.53-2.56c0-.49.08-.92.23-1.29.16-.37.38-.69.67-.96.29-.27.66-.52,1.1-.73.44-.21.94-.41,1.51-.59-.4-.18-.74-.43-1-.75-.27-.32-.4-.71-.4-1.17,0-.42.18-.84.54-1.25.36-.41.72-.74,1.09-.98-1.04-.28-1.85-.8-2.4-1.57-.56-.77-.84-1.64-.84-2.61,0-.62.12-1.2.36-1.75.24-.54.59-1.01,1.04-1.42.46-.4,1.03-.71,1.7-.93.68-.22,1.47-.33,2.36-.33ZM212.38,341.48c0-.59-.2-1.05-.59-1.4s-.88-.63-1.47-.85c-.59-.22-1.22-.4-1.9-.55s-1.31-.31-1.9-.49c-.7.42-1.15.87-1.37,1.33-.22.47-.33.95-.33,1.44,0,.97.35,1.7,1.04,2.18.7.49,1.7.73,3.02.73.68,0,1.24-.06,1.69-.19s.81-.3,1.07-.51c.27-.21.45-.46.56-.76.11-.29.17-.6.17-.93ZM205.32,329.61c0,.44.05.86.15,1.25.1.39.26.74.49,1.03.23.29.54.53.92.7s.86.26,1.43.26c1.06,0,1.82-.31,2.28-.93.46-.62.69-1.39.69-2.31,0-.99-.22-1.77-.67-2.35s-1.21-.87-2.29-.87-1.9.28-2.34.84c-.44.56-.66,1.35-.66,2.38Z"/><path class="cls-3" d="M234.31,320.02h6.04v.8c-.7.35-1.39.58-2.09.69l-5.19,9.56v6.73c.71.09,1.41.31,2.09.66v.8h-6.98v-.8c.66-.33,1.41-.55,2.25-.66v-6.71l-5.55-9.59c-.42-.07-.81-.17-1.17-.29s-.71-.25-1.06-.4v-.8h7.28v.8c-.27.11-.59.22-.93.34-.35.12-.74.23-1.18.34l4.51,8.08,4.23-8.08c-.42-.09-.82-.2-1.2-.32-.38-.12-.73-.24-1.06-.37v-.8Z"/><path class="cls-3" d="M238.98,332.38c0-1.15.15-2.17.45-3.06.3-.89.74-1.64,1.3-2.25.57-.61,1.25-1.08,2.05-1.4.8-.32,1.68-.48,2.65-.48,1.14,0,2.12.17,2.94.52.83.35,1.5.84,2.02,1.47.52.63.91,1.39,1.15,2.27.25.88.37,1.86.37,2.94,0,2.31-.59,4.08-1.76,5.33-1.17,1.25-2.75,1.87-4.73,1.87-1.1,0-2.05-.17-2.86-.51-.81-.34-1.48-.82-2.01-1.46-.53-.63-.93-1.39-1.2-2.28-.27-.89-.4-1.87-.4-2.95ZM241.62,332.38c0,.82.08,1.6.23,2.33.16.73.4,1.37.74,1.91.34.54.78.97,1.33,1.28.55.31,1.21.47,1.98.47.99,0,1.8-.49,2.43-1.46.63-.97.95-2.48.95-4.53,0-.84-.08-1.63-.23-2.35-.16-.72-.4-1.36-.73-1.9-.33-.54-.75-.97-1.26-1.28s-1.13-.47-1.84-.47c-1.08,0-1.95.49-2.61,1.46-.66.97-.99,2.48-.99,4.53Z"/><path class="cls-3" d="M255.16,333.81c0-1.15.03-2.29.08-3.39s.08-2.21.08-3.31l-1.81-.22v-.71c.59-.22,1.19-.41,1.8-.58.61-.17,1.21-.3,1.8-.41h.69c0,1.37-.03,2.74-.08,4.09-.05,1.36-.08,2.7-.08,4.04,0,.71.04,1.36.12,1.92.08.57.23,1.04.44,1.43.21.38.5.68.87.89.37.21.83.32,1.4.32.82,0,1.52-.3,2.07-.89.56-.6.99-1.37,1.31-2.32v-7.56l-1.79-.22v-.71c.57-.22,1.16-.41,1.77-.58.61-.17,1.21-.3,1.8-.41h.69v12.5l1.81.22v.58c-.53.24-1.07.45-1.61.63-.54.18-1.1.32-1.69.41h-.69l-.19-3.27h-.11c-.09.38-.25.77-.48,1.17-.23.39-.53.75-.89,1.07-.37.32-.78.58-1.25.78-.47.2-.98.3-1.53.3-.73,0-1.38-.09-1.94-.26-.56-.17-1.03-.48-1.42-.92-.38-.44-.68-1.03-.88-1.77-.2-.74-.3-1.68-.3-2.82Z"/><path class="cls-3" d="M284.67,339.25h-5.91v-.69c.49-.26,1.03-.48,1.62-.66v-6.51c0-1.39-.2-2.49-.6-3.3-.4-.81-1.14-1.21-2.2-1.21-.46,0-.88.08-1.28.25-.39.16-.74.39-1.04.67-.3.28-.56.6-.78.96s-.39.73-.52,1.11v8.02c.57.11,1.12.33,1.65.66v.69h-5.94v-.69c.46-.24,1.06-.46,1.81-.66v-10.8l-1.81-.22v-.71c.48-.2,1.03-.38,1.65-.55.62-.17,1.27-.31,1.95-.44h.69v3.08h.03c.38-.84.94-1.57,1.66-2.17s1.6-.91,2.62-.91c.73,0,1.39.09,1.96.26.58.17,1.06.48,1.44.92s.68,1.03.88,1.77c.2.74.3,1.68.3,2.82v6.95c.73.13,1.34.35,1.81.66v.69Z"/><path class="cls-3" d="M291.93,325.18c.99,0,1.82.1,2.5.29s1.25.49,1.7.89c1.08-.73,2.21-1.26,3.38-1.59.15.2.25.45.32.74.06.29.1.57.1.83l-.36.66h-2.88c.46.66.69,1.53.69,2.61,0,1.32-.46,2.39-1.39,3.21s-2.28,1.24-4.05,1.24c-.35,0-.63,0-.85-.03s-.47-.05-.74-.08c-.09.16-.2.35-.32.55-.12.2-.18.41-.18.63,0,.37.21.66.63.87.42.21.95.4,1.58.56.63.16,1.32.33,2.06.51.74.17,1.43.41,2.07.71.64.3,1.18.7,1.61,1.18.43.48.66,1.11.67,1.88.02.66-.13,1.25-.45,1.79s-.76.98-1.33,1.33c-.57.36-1.25.63-2.05.82s-1.67.29-2.62.29c-2,0-3.5-.34-4.52-1.02s-1.53-1.53-1.53-2.56c0-.49.08-.92.23-1.29.16-.37.38-.69.67-.96.29-.27.66-.52,1.1-.73.44-.21.94-.41,1.51-.59-.4-.18-.74-.43-1-.75-.27-.32-.4-.71-.4-1.17,0-.42.18-.84.54-1.25.36-.41.72-.74,1.09-.98-1.04-.28-1.85-.8-2.4-1.57-.56-.77-.84-1.64-.84-2.61,0-.62.12-1.2.36-1.75.24-.54.59-1.01,1.04-1.42.46-.4,1.03-.71,1.7-.93.68-.22,1.47-.33,2.36-.33ZM295.99,341.48c0-.59-.2-1.05-.59-1.4s-.88-.63-1.47-.85c-.59-.22-1.22-.4-1.9-.55s-1.31-.31-1.9-.49c-.7.42-1.15.87-1.37,1.33-.22.47-.33.95-.33,1.44,0,.97.35,1.7,1.04,2.18.7.49,1.7.73,3.02.73.68,0,1.24-.06,1.69-.19s.81-.3,1.07-.51c.27-.21.45-.46.56-.76.11-.29.17-.6.17-.93ZM288.93,329.61c0,.44.05.86.15,1.25.1.39.26.74.49,1.03.23.29.54.53.92.7s.86.26,1.43.26c1.06,0,1.82-.31,2.28-.93.46-.62.69-1.39.69-2.31,0-.99-.22-1.77-.67-2.35s-1.21-.87-2.29-.87-1.9.28-2.34.84-.66,1.35-.66,2.38Z"/><path class="cls-3" d="M329.21,339.25h-6.76v-.8c.37-.15.73-.27,1.1-.37s.74-.2,1.13-.29v-12.37l.11-3.21h-.22l-.91,2.94-5.63,14.1h-.71l-5.36-14.1-.99-3.21h-.25l.03,3.49v12.37c.35.07.7.17,1.04.27.35.11.7.24,1.04.38v.8h-5.74v-.8c.35-.15.71-.28,1.09-.4.38-.12.75-.21,1.14-.29v-16.27c-.38-.07-.76-.17-1.14-.29-.38-.12-.75-.25-1.11-.4v-.8h5.63l4.78,12.56.93,2.83h.03l.93-2.89,4.95-12.5h4.92v.8c-.33.15-.67.28-1.02.4-.35.12-.71.22-1.07.29v16.32c.38.07.75.16,1.09.26.34.1.66.22.97.37v.8Z"/><path class="cls-3" d="M337.32,339.25h-6.1v-.69c.27-.15.56-.27.85-.37s.61-.2.96-.29v-10.8l-1.81-.22v-.71c.53-.22,1.11-.41,1.73-.58s1.25-.3,1.87-.41h.69v12.72c.37.09.7.19.99.29s.57.22.82.37v.69ZM332.51,320.84c0-.49.16-.89.48-1.18.32-.29.75-.44,1.28-.44s.95.15,1.26.44c.31.29.47.69.47,1.18s-.16.88-.47,1.17-.73.43-1.26.43-.96-.14-1.28-.43-.48-.67-.48-1.17Z"/><path class="cls-3" d="M354.22,339.25h-5.91v-.69c.49-.26,1.03-.48,1.62-.66v-6.51c0-1.39-.2-2.49-.6-3.3-.4-.81-1.14-1.21-2.2-1.21-.46,0-.88.08-1.28.25-.39.16-.74.39-1.04.67-.3.28-.56.6-.78.96s-.39.73-.52,1.11v8.02c.57.11,1.12.33,1.65.66v.69h-5.94v-.69c.46-.24,1.06-.46,1.81-.66v-10.8l-1.81-.22v-.71c.48-.2,1.03-.38,1.65-.55.62-.17,1.27-.31,1.95-.44h.69v3.08h.03c.38-.84.94-1.57,1.66-2.17s1.6-.91,2.62-.91c.73,0,1.39.09,1.96.26.58.17,1.06.48,1.44.92s.68,1.03.88,1.77c.2.74.3,1.68.3,2.82v6.95c.73.13,1.34.35,1.81.66v.69Z"/><path class="cls-3" d="M364.94,336.53c-.09.4-.25.79-.47,1.15-.22.37-.49.69-.81.98-.32.28-.69.51-1.1.67-.41.17-.86.25-1.33.25-1.81,0-3.17-.58-4.07-1.73s-1.35-2.95-1.35-5.39.57-4.13,1.72-5.36c1.14-1.23,2.69-1.84,4.63-1.84.68,0,1.21.03,1.59.1s.81.18,1.26.34v-5.19l-2.09-.22v-.71c.53-.22,1.15-.41,1.85-.58s1.38-.3,2.02-.41h.69v19.1l1.81.22v.58c-.53.26-1.08.48-1.65.66-.57.18-1.13.31-1.68.38h-.69l-.25-3h-.11ZM361.77,337.88c.9,0,1.61-.28,2.14-.85.53-.57.9-1.34,1.1-2.31v-7.75c-.31-.18-.68-.31-1.1-.38-.42-.07-.96-.11-1.62-.11-1.25,0-2.2.55-2.86,1.63-.66,1.09-.99,2.54-.99,4.36,0,.75.06,1.45.19,2.1.13.65.33,1.22.6,1.72.27.5.62.88,1.03,1.17s.91.43,1.5.43Z"/><path class="cls-3" d="M378.04,336.12c0-.51-.16-.95-.48-1.3s-.73-.69-1.22-1c-.5-.31-1.02-.61-1.58-.91-.56-.29-1.08-.64-1.58-1.03-.49-.39-.9-.85-1.22-1.36-.32-.51-.48-1.14-.48-1.9,0-.49.11-.95.34-1.37.23-.42.54-.78.92-1.08.38-.3.83-.54,1.35-.71.51-.17,1.06-.26,1.65-.26.99,0,1.8.05,2.43.17.63.11,1.24.27,1.83.47-.07.59-.16,1.18-.26,1.77s-.24,1.2-.43,1.83h-.69l-1.04-2.8c-.22-.09-.47-.15-.74-.18-.27-.03-.56-.04-.85-.04-.33,0-.62.06-.87.18s-.46.27-.63.45c-.17.18-.31.39-.4.63-.09.24-.14.48-.14.71,0,.49.16.92.48,1.28s.73.69,1.22.99c.49.3,1.02.6,1.58.89.56.29,1.09.62,1.58.99.5.37.9.79,1.22,1.28s.48,1.07.48,1.75c0,.62-.13,1.18-.4,1.68-.27.49-.63.92-1.1,1.26-.47.35-1.01.62-1.62.81s-1.27.29-1.96.29c-.79,0-1.51-.07-2.17-.21-.66-.14-1.35-.33-2.06-.59.04-.66.12-1.3.25-1.91.13-.61.29-1.2.49-1.77h.69l1.21,3c.2.15.44.23.73.25.28.02.54.03.78.03.81,0,1.46-.22,1.95-.66.49-.44.74-.97.74-1.59Z"/></svg>