<?xml version="1.0" encoding="UTF-8"?><svg id="Layer_1" xmlns="http://www.w3.org/2000/svg" viewBox="0 0 378.87 374"><defs><style>.cls-1{fill:#ec2024;stroke-width:3.4px;}.cls-1,.cls-2{stroke:#cc9030;stroke-miterlimit:10;}.cls-2{fill:#cc9030;stroke-width:.72px;}</style></defs><path class="cls-2" d="M189.41,172.09c-47.27,0-85.72-38.52-85.72-85.87S142.14.36,189.41.36s85.72,38.52,85.72,85.87-38.46,85.87-85.72,85.87ZM189.41,3.83c-45.35,0-82.25,36.96-82.25,82.39s36.9,82.39,82.25,82.39,82.25-36.96,82.25-82.39S234.76,3.83,189.41,3.83Z"/><path class="cls-2" d="M85.41,302.83C38.52,302.83.36,264.61.36,217.63s38.16-85.2,85.05-85.2,85.05,38.22,85.05,85.2-38.16,85.2-85.05,85.2ZM85.41,135.88c-45,0-81.61,36.67-81.61,81.75s36.61,81.75,81.61,81.75,81.61-36.67,81.61-81.75-36.61-81.75-81.61-81.75Z"/><path class="cls-2" d="M266.01,209.6c-46.6-4.72-80.67-46.54-75.94-93.22,4.73-46.68,46.49-80.82,93.1-76.09,46.6,4.72,80.67,46.54,75.94,93.22-4.73,46.68-46.49,80.82-93.1,76.09ZM282.82,43.71c-44.71-4.53-84.79,28.22-89.33,73.02-4.54,44.79,28.15,84.92,72.86,89.45,44.71,4.53,84.79-28.22,89.33-73.02,4.54-44.79-28.15-84.92-72.86-89.45Z"/><path class="cls-2" d="M285.12,302.43c-46.53-4.72-80.54-46.47-75.82-93.08,4.72-46.61,46.42-80.69,92.95-75.98,46.53,4.72,80.54,46.47,75.82,93.08-4.72,46.61-46.42,80.69-92.95,75.98ZM301.9,136.8c-44.65-4.52-84.66,28.18-89.19,72.9-4.53,44.72,28.1,84.79,72.75,89.32,44.65,4.52,84.66-28.18,89.19-72.9,4.53-44.72-28.1-84.79-72.75-89.32Z"/><path class="cls-2" d="M134.98,373.2c-46.35-4.7-80.24-46.3-75.53-92.73,4.71-46.43,46.25-80.39,92.6-75.69,46.35,4.7,80.24,46.3,75.53,92.73-4.71,46.43-46.25,80.39-92.6,75.69ZM151.71,208.19c-44.48-4.51-84.34,28.07-88.85,72.63-4.52,44.56,28,84.47,72.47,88.98,44.48,4.51,84.34-28.07,88.85-72.63s-28-84.47-72.47-88.98Z"/><path class="cls-2" d="M97.11,209.67c-45.88-4.65-79.43-45.83-74.77-91.79,4.66-45.96,45.78-79.57,91.66-74.92,45.88,4.65,79.43,45.83,74.77,91.79-4.66,45.96-45.78,79.57-91.66,74.92ZM113.67,46.33c-44.03-4.46-83.48,27.79-87.95,71.89-4.47,44.1,27.71,83.61,71.74,88.08,44.03,4.46,83.48-27.79,87.95-71.89,4.47-44.1-27.71-83.61-71.74-88.08Z"/><path class="cls-2" d="M226.67,372.91c-46.53-4.72-80.54-46.47-75.82-93.08,4.72-46.61,46.42-80.69,92.95-75.98,46.53,4.72,80.54,46.47,75.82,93.08-4.72,46.61-46.42,80.69-92.95,75.98ZM243.45,207.27c-44.65-4.52-84.66,28.18-89.19,72.9-4.53,44.72,28.1,84.79,72.75,89.32,44.65,4.52,84.66-28.18,89.19-72.9,4.53-44.72-28.1-84.79-72.75-89.32Z"/><path class="cls-1" d="M170.94,124.05c0,37.95,18.58,68.7,18.58,68.7,0,0,18.55-30.77,18.54-68.71,0-37.94-18.58-68.7-18.58-68.7,0,0-18.55,30.77-18.54,68.71Z"/><path class="cls-1" d="M232.47,135.87c-29.66,23.67-42.12,57.36-42.12,57.36,0,0,35.62-4.68,65.28-28.35,29.66-23.67,42.12-57.36,42.12-57.36,0,0-35.62,4.68-65.28,28.35Z"/><path class="cls-1" d="M261.59,191.34c-37-8.42-71.11,2.84-71.11,2.84,0,0,25.88,24.93,62.87,33.35,37,8.42,71.11-2.84,71.11-2.84,0,0-25.88-24.93-62.87-33.35Z"/><path class="cls-1" d="M236.39,248.69c-16.49-34.18-46.57-53.82-46.57-53.82,0,0-3.35,35.77,13.14,69.95,16.49,34.18,46.57,53.82,46.57,53.82,0,0,3.35-35.77-13.14-69.95Z"/><path class="cls-1" d="M175.84,264.76c16.44-34.2,13.03-69.97,13.03-69.97,0,0-30.05,19.69-46.49,53.89-16.44,34.2-13.03,69.96-13.03,69.96,0,0,30.05-19.69,46.49-53.89Z"/><path class="cls-1" d="M125.52,227.45c36.99-8.48,62.82-33.45,62.82-33.45,0,0-34.13-11.21-71.12-2.73-36.98,8.48-62.82,33.44-62.82,33.44,0,0,34.13,11.21,71.12,2.74Z"/><path class="cls-1" d="M123.31,164.85c29.69,23.62,65.32,28.25,65.32,28.25,0,0-12.52-33.68-42.21-57.3-29.69-23.62-65.32-28.25-65.32-28.25,0,0,12.52,33.68,42.21,57.3Z"/><path class="cls-1" d="M170.87,124.07c.05,37.95,18.65,68.68,18.65,68.68,0,0,18.52-30.79,18.47-68.73-.05-37.94-18.65-68.68-18.65-68.68,0,0-18.52,30.79-18.47,68.73Z"/></svg>