<?xml version="1.0" encoding="UTF-8"?><svg id="Layer_1" xmlns="http://www.w3.org/2000/svg" viewBox="0 0 334.9 58.17"><defs><style>.cls-1{fill:#c6832d;}</style></defs><path class="cls-1" d="M8.58,24.74H0v-1.32c.37-.23.77-.43,1.2-.61.43-.17.85-.31,1.27-.4L11.43,0h2.57l8.72,22.41c.46.09.93.23,1.39.4.46.17.87.38,1.22.61v1.32h-10.87v-1.32c.44-.21.91-.41,1.42-.59.51-.19,1-.32,1.46-.42l-2.01-5.52h-7.71l-2.05,5.52c1.06.14,2.07.47,3.02,1.01v1.32ZM8.44,14.63h6.15l-2.26-6.64-.66-2.99h-.07l-.76,3.06-2.4,6.57Z"/><path class="cls-1" d="M39.19.42h9.31v1.32c-.39.26-.85.47-1.35.64-.51.17-.97.3-1.39.36l-6.6,8.37c.53.74,1.16,1.58,1.88,2.52.72.94,1.48,1.91,2.29,2.92.81,1.01,1.64,2.03,2.5,3.06.86,1.03,1.69,2.01,2.5,2.94l1.67,1.01v1.18h-6.04l-1.39-.97c-.56-.69-1.14-1.46-1.75-2.31-.61-.85-1.22-1.72-1.82-2.64-.6-.91-1.19-1.84-1.77-2.76-.58-.93-1.12-1.83-1.63-2.71h-1.49v9.07c.51.09.97.23,1.39.42s.78.38,1.08.59v1.32h-10.53v-1.32c.46-.23.94-.43,1.42-.61.49-.17.96-.31,1.42-.4V2.74c-.53-.07-1.05-.2-1.55-.38-.5-.19-.93-.39-1.3-.63V.42h10.53v1.32c-.3.19-.67.37-1.09.56-.43.19-.89.34-1.37.45v8.82l2.05-.49,5.59-8.34c-.46-.09-.92-.24-1.37-.43-.45-.2-.84-.39-1.16-.57V.42Z"/><path class="cls-1" d="M55.45,21.85c.25.26.61.49,1.08.71.46.22,1.08.33,1.84.33,1.27,0,2.33-.33,3.18-.99s1.27-1.58,1.27-2.76c0-.86-.27-1.57-.82-2.15-.54-.58-1.23-1.11-2.07-1.6-.83-.49-1.73-.97-2.68-1.44-.95-.47-1.84-1.04-2.68-1.68-.83-.65-1.52-1.42-2.07-2.31-.54-.89-.82-2-.82-3.32,0-1.13.21-2.12.63-2.95.42-.83.99-1.52,1.72-2.07.73-.54,1.59-.95,2.59-1.22,1-.27,2.07-.4,3.23-.4,1.41,0,2.73.1,3.94.3,1.22.2,2.31.5,3.28.92-.02.46-.06,1-.12,1.6-.06.6-.13,1.2-.23,1.79-.09.59-.19,1.15-.3,1.67s-.2.96-.3,1.3h-1.42l-1.61-4.76c-.28-.14-.69-.27-1.24-.38-.55-.12-1.11-.17-1.69-.17-.98,0-1.8.26-2.48.76-.67.51-1.01,1.25-1.01,2.22,0,.88.28,1.63.84,2.24.56.61,1.25,1.18,2.09,1.69.84.51,1.75,1.01,2.74,1.51.99.5,1.9,1.07,2.74,1.72.84.65,1.53,1.41,2.09,2.28.56.87.84,1.94.84,3.21,0,2.32-.78,4.11-2.35,5.37-1.56,1.26-3.86,1.89-6.9,1.89-.74,0-1.49-.05-2.24-.14-.75-.09-1.47-.22-2.14-.38-.67-.16-1.27-.34-1.79-.52-.52-.19-.91-.38-1.16-.59.02-.53.08-1.11.17-1.72.09-.61.19-1.23.3-1.84.1-.61.21-1.2.33-1.75.12-.56.23-1.04.35-1.46h1.42l1.42,5.11Z"/><path class="cls-1" d="M77.96,24.74h-8.58v-1.32c.37-.23.77-.43,1.2-.61.43-.17.85-.31,1.27-.4L80.81,0h2.57l8.72,22.41c.46.09.93.23,1.39.4.46.17.87.38,1.22.61v1.32h-10.87v-1.32c.44-.21.91-.41,1.42-.59.51-.19,1-.32,1.46-.42l-2.01-5.52h-7.71l-2.05,5.52c1.06.14,2.07.47,3.02,1.01v1.32ZM77.82,14.63h6.15l-2.26-6.64-.66-2.99h-.07l-.76,3.06-2.4,6.57Z"/><path class="cls-1" d="M112.14,22.41c1.07.14,2.07.47,3.02,1.01v1.32h-10.73v-1.32c.37-.21.76-.4,1.18-.57s.86-.32,1.32-.43V2.74c-.53-.12-1-.27-1.41-.45-.41-.19-.77-.37-1.09-.56V.42h18.17c0,.46-.02.97-.07,1.51-.05.54-.1,1.1-.16,1.67-.06.57-.13,1.12-.21,1.67-.08.54-.17,1.05-.26,1.51h-1.42l-1.6-4.1h-6.74v9.14h4.76l1.56-2.68h1.04c.09.6.16,1.24.19,1.91.03.67.05,1.34.05,2.01-.02.69-.05,1.37-.09,2.01-.03.65-.09,1.23-.16,1.74h-1.04l-1.56-2.74h-4.76v8.34Z"/><path class="cls-1" d="M125.06,12.58c0-1.81.25-3.48.76-5.02.51-1.54,1.26-2.87,2.26-4s2.22-2,3.68-2.62c1.46-.63,3.14-.94,5.04-.94s3.58.31,5.04.94c1.46.63,2.68,1.5,3.66,2.62.98,1.12,1.73,2.45,2.24,4,.51,1.54.76,3.21.76,5.02s-.26,3.48-.76,5.02c-.51,1.54-1.26,2.87-2.24,3.99-.98,1.12-2.21,2-3.66,2.62-1.46.63-3.14.94-5.04.94s-3.58-.31-5.04-.94c-1.46-.63-2.69-1.5-3.68-2.62-1-1.12-1.75-2.45-2.26-3.99-.51-1.54-.76-3.21-.76-5.02ZM130.97,12.58c0,1.48.12,2.85.35,4.12.23,1.26.6,2.35,1.09,3.27.5.92,1.13,1.63,1.91,2.15s1.71.78,2.8.78c1,0,1.84-.26,2.54-.78.69-.52,1.26-1.24,1.7-2.15.44-.91.76-2,.96-3.27.2-1.26.3-2.63.3-4.12s-.11-2.85-.33-4.12c-.22-1.26-.57-2.35-1.04-3.27-.47-.91-1.1-1.63-1.88-2.15-.78-.52-1.72-.78-2.83-.78s-1.96.26-2.68.78c-.72.52-1.29,1.24-1.72,2.15-.43.92-.73,2-.9,3.27-.17,1.26-.26,2.63-.26,4.12Z"/><path class="cls-1" d="M150.15.42h10.7v1.32c-.76.49-1.64.82-2.64,1.01v13.38c0,1.13.13,2.08.38,2.85s.63,1.38,1.11,1.86c.49.47,1.07.82,1.75,1.02.68.21,1.45.31,2.31.31.76,0,1.46-.11,2.1-.33.64-.22,1.19-.57,1.67-1.06.47-.49.84-1.12,1.09-1.91.25-.79.38-1.76.38-2.92V2.92c-.53-.12-1.08-.28-1.65-.49-.57-.21-1.04-.44-1.41-.69V.42h8.62v1.32c-.42.3-.88.54-1.39.73-.51.19-1.01.34-1.49.45v13.06c0,2.96-.78,5.22-2.34,6.76-1.56,1.54-3.77,2.31-6.62,2.31-3.1,0-5.5-.7-7.19-2.08-1.69-1.39-2.54-3.61-2.54-6.67V2.74c-.46-.07-.95-.19-1.46-.36s-.97-.39-1.39-.64V.42Z"/><path class="cls-1" d="M191.77.42h8.62v1.35c-.44.35-.93.65-1.46.92-.53.27-1.03.47-1.49.61v21.85h-2.95l-12.26-17.72-1.39-2.68h-.1l.31,2.78v14.49c.46.12.98.31,1.55.57.57.27,1.05.54,1.44.82v1.32h-8.58v-1.32c.42-.28.87-.54,1.37-.78.5-.24,1.01-.44,1.55-.61V3.09c-.46-.18-.93-.39-1.39-.62-.46-.23-.88-.47-1.25-.73V.42h7.5l9.97,14.45,1.6,2.99h.14l-.17-2.98V3.3c-.56-.18-1.09-.41-1.62-.68-.52-.27-.98-.55-1.37-.85V.42Z"/><path class="cls-1" d="M201.77,24.74v-1.32c.39-.23.83-.43,1.32-.61.49-.17,1-.31,1.53-.4V2.74c-.53-.12-1.05-.26-1.55-.43-.5-.17-.93-.36-1.3-.57V.42h4.03c.39,0,.88-.01,1.46-.03.58-.02,1.18-.05,1.81-.09.63-.03,1.23-.07,1.82-.1.59-.03,1.09-.05,1.51-.05,2.02,0,3.82.27,5.4.8,1.59.53,2.93,1.31,4.03,2.33,1.1,1.02,1.95,2.28,2.54,3.79.59,1.51.89,3.24.89,5.21s-.28,3.67-.83,5.25c-.56,1.58-1.39,2.92-2.5,4.03s-2.52,1.97-4.22,2.59c-1.7.61-3.7.92-5.99.92-.3,0-.71-.02-1.22-.05-.51-.03-1.05-.07-1.63-.1-.58-.03-1.16-.07-1.74-.1-.58-.03-1.09-.05-1.53-.05h-3.82ZM211.95,2.4c-.42,0-.83.01-1.25.03-.42.02-.78.06-1.08.1v20.11c.09.02.25.04.49.05.23.01.47.02.71.03.24.01.48.02.71.03.23.01.4.02.52.02,1.34,0,2.48-.28,3.42-.83.94-.56,1.71-1.31,2.31-2.26.6-.95,1.04-2.06,1.32-3.34.28-1.27.42-2.63.42-4.06,0-1.27-.15-2.5-.43-3.68-.29-1.18-.74-2.23-1.34-3.16-.6-.93-1.38-1.67-2.34-2.22s-2.11-.83-3.46-.83Z"/><path class="cls-1" d="M233.35,24.74h-8.58v-1.32c.37-.23.77-.43,1.2-.61.43-.17.85-.31,1.27-.4L236.2,0h2.57l8.72,22.41c.46.09.93.23,1.39.4.46.17.87.38,1.22.61v1.32h-10.87v-1.32c.44-.21.91-.41,1.42-.59s1-.32,1.46-.42l-2.02-5.52h-7.71l-2.05,5.52c1.07.14,2.07.47,3.02,1.01v1.32ZM233.21,14.63h6.15l-2.26-6.64-.66-2.99h-.07l-.76,3.06-2.4,6.57Z"/><path class="cls-1" d="M264.51,24.74h-11.95v-1.32c.46-.19.99-.38,1.58-.57.59-.2,1.19-.34,1.79-.43V2.68h-4.03l-2.22,5.94h-1.42c-.09-.46-.19-1.05-.28-1.77-.09-.72-.17-1.46-.24-2.22-.07-.76-.13-1.52-.17-2.28s-.07-1.4-.07-1.93h22.13c0,.56-.02,1.2-.07,1.95-.05.74-.1,1.49-.17,2.26-.07.76-.15,1.5-.24,2.21-.09.71-.19,1.3-.28,1.79h-1.46l-2.22-5.94h-4.03v19.73c.6.12,1.2.26,1.79.42.59.16,1.12.36,1.58.59v1.32Z"/><path class="cls-1" d="M282.02,24.74h-10.84v-1.32c.93-.51,1.86-.85,2.81-1.01V2.74c-.46-.07-.95-.2-1.46-.38-.51-.19-.96-.39-1.35-.63V.42h10.84v1.32c-.42.26-.87.47-1.37.64-.5.17-.98.3-1.44.36v19.66c.46.09.94.22,1.44.38.5.16.96.37,1.37.63v1.32Z"/><path class="cls-1" d="M284.42,12.58c0-1.81.25-3.48.76-5.02.51-1.54,1.26-2.87,2.26-4s2.22-2,3.68-2.62c1.46-.63,3.14-.94,5.04-.94s3.58.31,5.04.94c1.46.63,2.68,1.5,3.66,2.62.98,1.12,1.73,2.45,2.24,4,.51,1.54.76,3.21.76,5.02s-.26,3.48-.76,5.02c-.51,1.54-1.26,2.87-2.24,3.99-.98,1.12-2.21,2-3.66,2.62-1.46.63-3.14.94-5.04.94s-3.58-.31-5.04-.94c-1.46-.63-2.69-1.5-3.68-2.62-1-1.12-1.75-2.45-2.26-3.99-.51-1.54-.76-3.21-.76-5.02ZM290.32,12.58c0,1.48.12,2.85.35,4.12.23,1.26.6,2.35,1.09,3.27.5.92,1.13,1.63,1.91,2.15s1.71.78,2.8.78c1,0,1.84-.26,2.54-.78.69-.52,1.26-1.24,1.7-2.15.44-.91.76-2,.96-3.27.2-1.26.3-2.63.3-4.12s-.11-2.85-.33-4.12c-.22-1.26-.57-2.35-1.04-3.27-.47-.91-1.1-1.63-1.88-2.15-.78-.52-1.72-.78-2.83-.78s-1.96.26-2.68.78c-.72.52-1.29,1.24-1.72,2.15-.43.92-.73,2-.9,3.27-.17,1.26-.26,2.63-.26,4.12Z"/><path class="cls-1" d="M326.28.42h8.62v1.35c-.44.35-.93.65-1.46.92-.53.27-1.03.47-1.49.61v21.85h-2.95l-12.26-17.72-1.39-2.68h-.1l.31,2.78v14.49c.46.12.98.31,1.55.57.57.27,1.05.54,1.44.82v1.32h-8.58v-1.32c.42-.28.87-.54,1.37-.78.5-.24,1.01-.44,1.55-.61V3.09c-.46-.18-.93-.39-1.39-.62-.46-.23-.88-.47-1.25-.73V.42h7.5l9.97,14.45,1.6,2.99h.14l-.17-2.98V3.3c-.56-.18-1.09-.41-1.62-.68-.52-.27-.98-.55-1.37-.85V.42Z"/><path class="cls-1" d="M57.81,39.25c-.01.55-.04,1.11-.07,1.67-.03.56-.09,1.12-.16,1.69h-.54l-.85-2.28h-4.52v5.5h3.38l.81-1.54h.52c.08,1.37.08,2.77,0,4.19h-.52l-.81-1.58h-3.38v5.79h4.77l1.02-2.49h.52c.1.58.17,1.17.21,1.76.04.59.05,1.2.02,1.8h-10.23v-.6c.48-.22,1.05-.39,1.7-.5v-12.3c-.28-.05-.56-.13-.85-.22s-.57-.19-.85-.3v-.6h9.83Z"/><path class="cls-1" d="M70.81,53.77h-4.44v-.52c.14-.08.31-.17.51-.26s.44-.17.72-.24v-4.79c0-.55-.02-1.05-.07-1.49-.05-.44-.14-.81-.27-1.11-.13-.3-.32-.52-.57-.68-.25-.16-.57-.24-.97-.24-.3,0-.58.06-.84.19-.26.12-.48.29-.68.5-.2.21-.37.44-.52.71-.15.26-.26.54-.34.83v6.1c.22.07.43.14.63.22.2.08.4.17.59.28v.52h-4.46v-.52c.19-.1.41-.19.64-.27.23-.08.48-.16.73-.23v-8.15l-1.37-.17v-.54c.44-.19.9-.35,1.36-.47s.92-.21,1.36-.28h.52v2.34h.02c.22-.65.6-1.2,1.13-1.66s1.19-.68,1.98-.68c.33,0,.65.03.95.1s.59.2.85.38.48.45.66.78c.18.33.31.76.39,1.29.25-.76.65-1.38,1.2-1.85.55-.47,1.24-.7,2.07-.7.51,0,.96.07,1.34.2.38.13.7.36.94.7s.43.78.55,1.35c.12.57.18,1.29.18,2.16v5.21c.47.08.93.25,1.37.5v.52h-4.46v-.52c.41-.22.82-.39,1.22-.5v-5.16c0-.5-.02-.94-.07-1.33-.05-.39-.14-.72-.28-.98s-.33-.48-.58-.62c-.25-.15-.58-.22-1-.22-.66,0-1.18.23-1.55.68-.37.46-.63,1.04-.8,1.74v5.89c.48.14.93.3,1.35.5v.52Z"/><path class="cls-1" d="M82.59,57.92h-4.6v-.52c.47-.22.93-.39,1.37-.5v-12.3l-1.37-.17v-.54c.44-.19.9-.35,1.36-.47s.92-.21,1.36-.28h.52v2.32h.02c.28-.7.66-1.27,1.16-1.69.5-.42,1.15-.63,1.95-.63,1.23,0,2.18.41,2.86,1.22s1.02,2.14,1.02,3.98c0,.87-.11,1.66-.34,2.36s-.55,1.3-.97,1.78c-.42.48-.93.86-1.53,1.12s-1.27.39-2,.39c-.51,0-.91-.03-1.2-.09s-.61-.17-.95-.32v3.3c.22.03.44.08.66.16.22.08.46.19.71.34v.52ZM83.69,44.44c-.68,0-1.22.21-1.62.64-.4.43-.68,1.02-.85,1.76v5.81c.25.15.53.27.84.34s.72.11,1.21.11c.46,0,.87-.12,1.23-.35.37-.23.68-.57.93-1,.26-.43.45-.93.59-1.5.14-.57.21-1.21.21-1.9,0-.57-.05-1.09-.13-1.57-.09-.48-.24-.89-.44-1.24-.2-.35-.46-.63-.79-.82-.33-.19-.72-.29-1.19-.29Z"/><path class="cls-1" d="M89.94,48.59c0-.87.11-1.64.34-2.31.23-.67.56-1.24.99-1.7.43-.46.94-.82,1.55-1.06.6-.24,1.27-.36,2-.36.86,0,1.6.13,2.22.39.62.26,1.13.63,1.52,1.11.39.48.68,1.05.87,1.71.19.66.28,1.4.28,2.22,0,1.74-.44,3.08-1.33,4.02-.89.94-2.07,1.41-3.57,1.41-.83,0-1.55-.13-2.16-.38s-1.11-.62-1.51-1.1-.7-1.05-.9-1.72c-.2-.67-.3-1.41-.3-2.23ZM91.93,48.59c0,.62.06,1.21.18,1.76.12.55.3,1.03.56,1.44s.59.73,1.01.96c.41.24.91.35,1.49.35.75,0,1.36-.37,1.84-1.1.48-.73.72-1.87.72-3.42,0-.64-.06-1.23-.18-1.77s-.3-1.02-.55-1.43c-.25-.41-.57-.73-.95-.96-.39-.24-.85-.35-1.39-.35-.82,0-1.47.37-1.97,1.1-.5.73-.75,1.87-.75,3.42Z"/><path class="cls-1" d="M104.45,54.02l-3.26-9.58c-.19-.07-.38-.14-.57-.22s-.36-.17-.53-.28v-.54h4.35v.52c-.19.11-.39.21-.58.3-.19.09-.39.16-.6.22l1.77,6.06.26,1.49h.04l.31-1.53,2.24-6.84.62-.21,2.39,7.07.37,1.51h.04l.31-1.51,1.6-6.04c-.15-.03-.33-.08-.53-.17-.2-.08-.4-.19-.61-.33v-.54h3.53v.54c-.29.19-.68.36-1.18.5l-2.94,9.33-1.1.25-2.05-5.87-.39-1.72h-.06l-.48,1.72-1.87,5.62-1.08.25Z"/><path class="cls-1" d="M124.41,52.32c-.11.24-.28.46-.52.66-.24.21-.5.39-.81.54-.3.15-.64.27-1,.36-.36.09-.73.13-1.1.13-.82,0-1.54-.13-2.16-.38s-1.14-.62-1.56-1.1-.73-1.05-.94-1.71c-.21-.66-.32-1.41-.32-2.24,0-1.77.41-3.12,1.22-4.04.82-.93,1.97-1.39,3.46-1.39.48,0,.96.07,1.43.2.47.13.89.35,1.25.65.37.3.66.71.89,1.21.23.5.34,1.13.34,1.88,0,.24-.01.47-.03.72-.02.24-.06.5-.11.78h-6.47c0,.58.07,1.12.22,1.63.15.5.36.94.65,1.32.29.37.66.67,1.1.88.44.21.96.32,1.56.32.48,0,.98-.07,1.47-.21s.87-.32,1.12-.54l.29.33ZM120.61,44.07c-.79,0-1.39.27-1.8.8-.41.53-.66,1.47-.75,2.81h4.56c.01-.12.02-.25.03-.36,0-.12.01-.23.01-.34,0-.88-.17-1.59-.5-2.12-.33-.53-.85-.79-1.56-.79Z"/><path class="cls-1" d="M130.65,44.96c-.15.08-.34.25-.57.51-.23.26-.43.63-.61,1.13v6.16c.28.03.55.08.83.16.28.08.55.19.83.34v.52h-4.9v-.52c.25-.14.48-.24.71-.31s.44-.13.66-.19v-8.15l-1.37-.17v-.54c.44-.19.9-.35,1.37-.47s.92-.21,1.35-.28h.52v2.2h.08c.12-.28.3-.55.53-.83.23-.28.49-.53.79-.75.3-.22.62-.39.97-.51.35-.12.72-.16,1.09-.11.1.18.18.38.26.59s.15.44.22.67v.54h-2.76Z"/><path class="cls-1" d="M139.01,53.77h-4.6v-.52c.21-.11.42-.2.64-.28s.46-.15.73-.22v-8.15l-1.37-.17v-.54c.4-.17.84-.31,1.31-.44s.94-.23,1.41-.31h.52v9.6c.28.07.53.14.75.22s.43.17.62.28v.52ZM135.38,39.88c0-.37.12-.67.36-.89.24-.22.56-.33.96-.33s.72.11.95.33c.24.22.35.52.35.89s-.12.67-.35.88-.55.32-.95.32-.72-.11-.96-.32-.36-.51-.36-.88Z"/><path class="cls-1" d="M151.76,53.77h-4.46v-.52c.37-.19.78-.36,1.22-.5v-4.92c0-1.05-.15-1.88-.46-2.49-.3-.61-.86-.91-1.66-.91-.35,0-.67.06-.96.19-.3.12-.56.29-.79.51-.23.21-.43.46-.59.73s-.3.55-.39.84v6.06c.43.08.84.25,1.24.5v.52h-4.48v-.52c.35-.18.8-.35,1.37-.5v-8.15l-1.37-.17v-.54c.36-.15.77-.29,1.24-.42.47-.12.96-.24,1.47-.33h.52v2.32h.02c.29-.64.71-1.18,1.25-1.64s1.21-.68,1.98-.68c.55,0,1.05.07,1.48.2.44.13.8.36,1.09.7s.51.78.66,1.34c.15.56.23,1.27.23,2.13v5.25c.55.1,1.01.26,1.37.5v.52Z"/><path class="cls-1" d="M157.24,43.15c.75,0,1.38.07,1.89.22s.94.37,1.29.67c.82-.55,1.67-.95,2.55-1.2.11.15.19.34.24.56.05.22.07.43.07.62l-.27.5h-2.18c.34.5.52,1.15.52,1.97,0,1-.35,1.8-1.05,2.43s-1.72.93-3.06.93c-.26,0-.48,0-.64-.02s-.35-.03-.56-.06c-.07.12-.15.26-.24.41-.09.15-.13.31-.13.48,0,.28.16.49.48.65.32.16.72.3,1.19.43.48.12,1,.25,1.56.38.56.13,1.08.31,1.57.54.48.23.89.53,1.21.89.33.37.49.84.51,1.42.01.5-.1.95-.34,1.35s-.58.74-1.01,1.01c-.43.27-.94.48-1.55.62s-1.26.22-1.98.22c-1.51,0-2.64-.26-3.41-.77s-1.15-1.15-1.15-1.93c0-.37.06-.7.18-.97.12-.28.29-.52.51-.73.22-.21.5-.39.83-.55.33-.16.71-.31,1.14-.45-.3-.14-.56-.33-.76-.57-.2-.24-.3-.54-.3-.88,0-.32.13-.63.4-.94.27-.31.54-.56.82-.74-.79-.21-1.39-.6-1.81-1.18-.42-.58-.63-1.24-.63-1.97,0-.47.09-.91.27-1.32.18-.41.44-.76.79-1.07.34-.3.77-.54,1.29-.71.51-.17,1.11-.25,1.78-.25ZM160.31,55.45c0-.44-.15-.8-.45-1.06s-.67-.48-1.11-.64c-.44-.17-.92-.3-1.43-.42s-.99-.24-1.43-.37c-.53.32-.87.65-1.04,1.01-.17.35-.25.72-.25,1.09,0,.73.26,1.28.79,1.65.52.37,1.29.55,2.28.55.51,0,.94-.05,1.28-.15s.61-.22.81-.38c.2-.16.34-.35.43-.57.08-.22.12-.46.12-.71ZM154.98,46.49c0,.33.04.65.11.94.08.3.2.56.37.78.17.22.4.4.7.53s.65.2,1.08.2c.8,0,1.38-.24,1.72-.71.35-.47.52-1.05.52-1.74,0-.75-.17-1.34-.51-1.77s-.92-.65-1.73-.65-1.43.21-1.76.63-.5,1.02-.5,1.79Z"/><path class="cls-1" d="M176.86,39.25h4.56v.6c-.53.26-1.05.44-1.58.52l-3.92,7.22v5.08c.54.07,1.06.24,1.58.5v.6h-5.27v-.6c.5-.25,1.06-.42,1.7-.5v-5.06l-4.19-7.24c-.32-.05-.61-.13-.88-.22s-.54-.19-.8-.3v-.6h5.5v.6c-.21.08-.44.17-.7.26-.26.09-.56.18-.89.26l3.4,6.1,3.19-6.1c-.32-.07-.62-.15-.9-.24-.28-.09-.55-.18-.8-.28v-.6Z"/><path class="cls-1" d="M180.39,48.59c0-.87.11-1.64.34-2.31.23-.67.56-1.24.98-1.7.43-.46.94-.82,1.55-1.06.6-.24,1.27-.36,2-.36.86,0,1.6.13,2.22.39.62.26,1.13.63,1.53,1.11.39.48.68,1.05.87,1.71.19.66.28,1.4.28,2.22,0,1.74-.44,3.08-1.33,4.02-.88.94-2.07,1.41-3.57,1.41-.83,0-1.55-.13-2.16-.38-.61-.26-1.11-.62-1.51-1.1-.4-.48-.7-1.05-.9-1.72-.2-.67-.3-1.41-.3-2.23ZM182.38,48.59c0,.62.06,1.21.18,1.76.12.55.3,1.03.56,1.44.26.41.59.73,1.01.96.42.24.91.35,1.49.35.75,0,1.36-.37,1.84-1.1.48-.73.72-1.87.72-3.42,0-.64-.06-1.23-.18-1.77-.12-.55-.3-1.02-.55-1.43-.25-.41-.57-.73-.95-.96s-.85-.35-1.39-.35c-.82,0-1.47.37-1.97,1.1-.5.73-.75,1.87-.75,3.42Z"/><path class="cls-1" d="M192.6,49.67c0-.87.02-1.72.06-2.56s.06-1.67.06-2.5l-1.37-.17v-.54c.44-.17.9-.31,1.36-.44.46-.12.92-.23,1.36-.31h.52c0,1.04-.02,2.07-.06,3.09-.04,1.02-.06,2.04-.06,3.05,0,.54.03,1.02.09,1.45.06.43.17.79.33,1.08.16.29.38.52.65.67.28.16.63.24,1.06.24.62,0,1.14-.22,1.57-.67.42-.45.75-1.03.99-1.75v-5.7l-1.35-.17v-.54c.43-.17.87-.31,1.34-.44.46-.12.92-.23,1.36-.31h.52v9.44l1.37.17v.44c-.4.18-.81.34-1.21.48-.41.14-.83.24-1.28.31h-.52l-.15-2.47h-.08c-.07.29-.19.58-.36.88-.17.3-.4.57-.67.81-.28.24-.59.44-.94.59-.35.15-.74.23-1.15.23-.55,0-1.04-.07-1.46-.2-.42-.13-.78-.36-1.07-.69-.29-.33-.51-.78-.66-1.34-.15-.56-.23-1.27-.23-2.13Z"/><path class="cls-1" d="M214.88,53.77h-4.46v-.52c.37-.19.78-.36,1.22-.5v-4.92c0-1.05-.15-1.88-.46-2.49-.3-.61-.86-.91-1.66-.91-.35,0-.67.06-.96.19-.3.12-.56.29-.79.51-.23.21-.43.46-.59.73s-.3.55-.39.84v6.06c.43.08.84.25,1.24.5v.52h-4.48v-.52c.35-.18.8-.35,1.37-.5v-8.15l-1.37-.17v-.54c.36-.15.77-.29,1.24-.42.47-.12.96-.24,1.47-.33h.52v2.32h.02c.29-.64.71-1.18,1.25-1.64s1.21-.68,1.98-.68c.55,0,1.05.07,1.48.2.44.13.8.36,1.09.7s.51.78.66,1.34c.15.56.23,1.27.23,2.13v5.25c.55.1,1.01.26,1.37.5v.52Z"/><path class="cls-1" d="M220.35,43.15c.75,0,1.38.07,1.89.22s.94.37,1.29.67c.82-.55,1.67-.95,2.55-1.2.11.15.19.34.24.56.05.22.07.43.07.62l-.27.5h-2.18c.34.5.52,1.15.52,1.97,0,1-.35,1.8-1.05,2.43s-1.72.93-3.06.93c-.26,0-.48,0-.64-.02s-.35-.03-.56-.06c-.07.12-.15.26-.24.41-.09.15-.13.31-.13.48,0,.28.16.49.48.65.32.16.72.3,1.19.43.48.12,1,.25,1.56.38.56.13,1.08.31,1.57.54.48.23.89.53,1.21.89.33.37.49.84.51,1.42.01.5-.1.95-.34,1.35s-.58.74-1.01,1.01c-.43.27-.94.48-1.55.62s-1.26.22-1.98.22c-1.51,0-2.64-.26-3.41-.77s-1.15-1.15-1.15-1.93c0-.37.06-.7.18-.97.12-.28.29-.52.51-.73.22-.21.5-.39.83-.55.33-.16.71-.31,1.14-.45-.3-.14-.56-.33-.76-.57-.2-.24-.3-.54-.3-.88,0-.32.13-.63.4-.94.27-.31.54-.56.82-.74-.79-.21-1.39-.6-1.81-1.18-.42-.58-.63-1.24-.63-1.97,0-.47.09-.91.27-1.32.18-.41.44-.76.79-1.07.34-.3.77-.54,1.29-.71.51-.17,1.11-.25,1.78-.25ZM223.42,55.45c0-.44-.15-.8-.45-1.06s-.67-.48-1.11-.64c-.44-.17-.92-.3-1.43-.42s-.99-.24-1.43-.37c-.53.32-.87.65-1.04,1.01-.17.35-.25.72-.25,1.09,0,.73.26,1.28.79,1.65.52.37,1.29.55,2.28.55.51,0,.94-.05,1.28-.15s.61-.22.81-.38c.2-.16.34-.35.43-.57.08-.22.12-.46.12-.71ZM218.09,46.49c0,.33.04.65.11.94.08.3.2.56.37.78.17.22.4.4.7.53s.65.2,1.08.2c.8,0,1.38-.24,1.72-.71.35-.47.52-1.05.52-1.74,0-.75-.17-1.34-.51-1.77s-.92-.65-1.73-.65-1.43.21-1.76.63-.5,1.02-.5,1.79Z"/><path class="cls-1" d="M248.5,53.77h-5.1v-.6c.28-.11.55-.2.83-.28s.56-.15.85-.22v-9.33l.08-2.43h-.17l-.68,2.22-4.25,10.64h-.54l-4.04-10.64-.75-2.43h-.19l.02,2.63v9.33c.26.06.53.12.79.21.26.08.52.18.79.29v.6h-4.34v-.6c.26-.11.54-.21.82-.3.28-.09.57-.16.86-.22v-12.28c-.29-.05-.58-.13-.86-.22-.28-.09-.56-.19-.84-.3v-.6h4.25l3.61,9.48.71,2.14h.02l.7-2.18,3.73-9.44h3.71v.6c-.25.11-.5.21-.77.3-.26.09-.53.16-.81.22v12.32c.29.06.56.12.82.2.26.08.5.17.74.28v.6Z"/><path class="cls-1" d="M254.61,53.77h-4.6v-.52c.21-.11.42-.2.64-.28s.46-.15.73-.22v-8.15l-1.37-.17v-.54c.4-.17.84-.31,1.31-.44s.94-.23,1.41-.31h.52v9.6c.28.07.53.14.75.22s.43.17.62.28v.52ZM250.98,39.88c0-.37.12-.67.36-.89.24-.22.56-.33.96-.33s.72.11.95.33c.24.22.35.52.35.89s-.12.67-.35.88-.55.32-.95.32-.72-.11-.96-.32-.36-.51-.36-.88Z"/><path class="cls-1" d="M267.37,53.77h-4.46v-.52c.37-.19.78-.36,1.22-.5v-4.92c0-1.05-.15-1.88-.46-2.49-.3-.61-.86-.91-1.66-.91-.35,0-.67.06-.96.19-.3.12-.56.29-.79.51-.23.21-.43.46-.59.73s-.3.55-.39.84v6.06c.43.08.84.25,1.24.5v.52h-4.48v-.52c.35-.18.8-.35,1.37-.5v-8.15l-1.37-.17v-.54c.36-.15.77-.29,1.24-.42.47-.12.96-.24,1.47-.33h.52v2.32h.02c.29-.64.71-1.18,1.25-1.64s1.21-.68,1.98-.68c.55,0,1.05.07,1.48.2.44.13.8.36,1.09.7s.51.78.66,1.34c.15.56.23,1.27.23,2.13v5.25c.55.1,1.01.26,1.37.5v.52Z"/><path class="cls-1" d="M275.46,51.72c-.07.3-.19.59-.35.87-.17.28-.37.52-.61.74-.24.21-.52.38-.83.51-.31.12-.65.19-1.01.19-1.37,0-2.39-.44-3.07-1.31s-1.02-2.23-1.02-4.07.43-3.12,1.3-4.04c.86-.93,2.03-1.39,3.49-1.39.51,0,.91.02,1.2.07s.61.13.95.26v-3.92l-1.58-.17v-.54c.4-.17.87-.31,1.4-.44s1.04-.23,1.52-.31h.52v14.41l1.37.17v.44c-.4.19-.82.36-1.24.5-.43.14-.85.24-1.27.29h-.52l-.19-2.26h-.08ZM273.07,52.74c.68,0,1.22-.21,1.62-.64.4-.43.68-1.01.83-1.74v-5.85c-.24-.14-.51-.24-.83-.29-.32-.06-.73-.08-1.22-.08-.94,0-1.66.41-2.16,1.23-.5.82-.75,1.92-.75,3.29,0,.57.05,1.1.15,1.59.1.49.25.92.46,1.3.21.37.47.67.78.88s.69.32,1.13.32Z"/><path class="cls-1" d="M285.35,51.41c0-.39-.12-.72-.36-.98s-.55-.52-.92-.76c-.37-.24-.77-.46-1.19-.68-.42-.22-.82-.48-1.19-.78-.37-.3-.68-.64-.92-1.03-.24-.39-.36-.86-.36-1.43,0-.37.09-.72.26-1.04.17-.32.4-.59.7-.82.29-.23.63-.41,1.02-.54.39-.13.8-.2,1.24-.2.75,0,1.36.04,1.84.12.48.08.94.2,1.38.35-.06.44-.12.89-.2,1.34s-.18.91-.32,1.38h-.52l-.79-2.12c-.17-.07-.35-.11-.56-.13-.21-.02-.42-.03-.64-.03-.25,0-.47.04-.65.13s-.35.2-.48.34c-.13.14-.23.3-.3.48-.07.18-.1.36-.1.54,0,.37.12.69.36.96s.55.52.92.75c.37.23.77.45,1.19.67.42.22.82.47,1.19.75.37.28.68.6.92.96s.36.81.36,1.32c0,.47-.1.89-.3,1.26-.2.37-.48.69-.83.95-.35.26-.76.47-1.22.61s-.96.22-1.48.22c-.59,0-1.14-.05-1.64-.16-.5-.1-1.02-.25-1.56-.45.03-.5.09-.98.19-1.44.1-.46.22-.91.37-1.34h.52l.91,2.26c.15.11.34.17.55.19.21.01.41.02.59.02.61,0,1.1-.17,1.47-.5.37-.33.56-.73.56-1.2Z"/></svg>