<?xml version="1.0" encoding="UTF-8"?><svg id="Layer_1" xmlns="http://www.w3.org/2000/svg" viewBox="0 0 510.11 588.94"><defs><style>.cls-1{fill:#fd7c96;}.cls-2{fill:#fcd78d;}.cls-3{fill:#020202;}.cls-4{fill:#fbcdc4;}.cls-5{fill:#fdd88e;}.cls-6{fill:#65ddf4;}.cls-7{fill:#070605;}.cls-8{fill:#030303;}</style></defs><path class="cls-8" d="M432.91,39.01c4.31-.84,6.25-.05,9.48,2.59,6.56,5.35,3.03,11.72,7.47,16.55,4.85,5.27,13.53,1.28,18.14,9.31,3.17,5.53,1.45,11.99-3.96,15.29-4.52,2.76-10.34,1.1-14.18,5.27-4.51,4.9-1.72,18.99-13.82,19.46-13.95.54-10-12.31-14.8-18.44-5.42-6.92-19.61-2.23-20.16-15.41-.6-14.32,14.62-9.22,20.16-16.51,4.74-6.24.44-15.92,11.67-18.11Z"/><path class="cls-8" d="M55.97,226.71c-5.73,5.16-2.52,24.49-18.47,19.48-10.69-3.36-6.14-14.09-11.69-19.2-5.27-4.85-16.33-.75-18.91-12.01-3.52-15.37,14.59-11.98,19.77-17.58,4.76-5.15,1.06-22.99,17.55-18.56,10.85,2.91,5.74,12.34,11.34,18.41,5.88,6.38,16.95.9,19.28,12.79.96,4.89-.88,8.94-4.9,11.73-4.65,3.23-10.29,1.63-13.95,4.93Z"/><path class="cls-5" d="M197.3,577.86c0-3.69-3.4-10.7-7.43-10.7h-102.34v-41.27h54.77c3.33,0,10.95-6.53,10.95-9.8v-55.93h169.67v57.08c0,2.16,7.36,8.65,9.74,8.65h54.46v41.27h-101.2c-3.16,0-8.58,7.37-8.58,10.7h-28.59c0-15.75-22.87-12.7-22.87,0h-28.59Z"/><path class="cls-7" d="M248.99,577.51c0,16.83-22.88,13.58-22.88,0s22.88-16.83,22.88,0Z"/><path class="cls-1" d="M327.92,208.06c27.98,48.86,72.6,86.21,122.44,111.52-7.82,4.08-15.47,9.81-21.18,16.57-12.35,14.61-13.26,29.64-33.76,38.32-31.65,13.4-49.88-13.6-81.22-7.41l-13.7-132.1c0-.97.61-1.61,1.05-2.37.83-1.44,21.56-22.08,23.49-23.41.96-.66,1.2-1.56,2.87-1.11Z"/><path class="cls-3" d="M245.64.19c2,.24,8.97,2.39,11.17,3.24,26.72,10.41,37.32,43.63,23.42,68.24,14.17-.69,28.93,3.24,39.75,12.73,13.26,11.64,31.6,61.31,30.57,78.94-.48,8.3-4.08,15.92-5.57,23.95,33.7,60.77,91.64,105.76,158.22,125.56,12.55,10.4,7.13,22.07-9.1,21.79-15.29-.27-21.94-1-35.48,8.24-13.45,9.17-14.38,19.38-23.37,30.82-15.04,19.13-38.87,29.69-63.31,27.75-18.59-1.47-33.09-14.7-52.49-11.52-.71,15.85,5.64,31.78,0,47.28h16.67c2.38,0,9.74,6.49,9.74,8.65v57.08h56.76c4.09,0,7.44,3.35,7.44,7.44v55.23h56.75c.92,0,5.53,3.88,6.31,5,4.53,6.51,1.41,12.63-4.88,16.4h-183.99c-3.56-2.04-7.17-6.06-7.17-10.28,0-3.46,5.43-11.12,8.6-11.12h101.46v-39.74h-54.46c-2.38,0-9.74-6.49-9.74-8.65v-57.08h-169.67v55.93c0,3.27-7.63,9.8-10.95,9.8h-54.77v39.74h102.61c4.04,0,7.46,7.35,7.45,11.22,0,4.83-1.55,8.16-6.22,10.18l-180.1,1.07c-8.94-.66-14.12-9.48-9.59-17.29.83-1.44,6.31-5.18,7.32-5.18h55.6v-54.02c0-1.6,5.48-8.65,7.5-8.65h56.5l1.73-1.73v-56.5c0-2.02,7.05-7.5,8.65-7.5h19.03l-2.33-16.68,20.79-185.68c-22.88-27.47-53.2-42.38-48.32-84.07,1.2-10.25,16.94-50.3,23.14-58.74,10.78-14.68,27.84-21.38,45.92-20.38-15.02-30.47.78-62.08,32.29-71.49,5.16.44,11.12-.6,16.14,0ZM233.84,26.49c-30.28,4.22-25.43,53.51,9.73,47.46,27.58-4.74,22.96-52.01-9.73-47.46ZM299.99,202.27c12.95-11.42,28.08-24.65,26.16-43.86-.74-7.38-14.48-43.6-18.81-49.75-5.93-8.42-14.03-10.86-23.88-11.55-24.46-1.7-67.34-2.13-91.46.07-14.61,1.33-20.46,6.64-26.29,19.42-15.33,33.63-25.06,57.09,8.55,82.82,1.15.88,1.44,2.2,3.44,1.71v-55.12c0-4.36,8.26-7.95,12.21-7.42s9.19,7.15,9.19,10.85v69.2h77.96v-71.49c0-4.32,7.65-8.84,12.01-8.66,3.98.17,10.92,4.85,10.92,8.66v55.11ZM327.92,208.06c-1.67-.45-1.9.45-2.87,1.11-1.94,1.34-22.67,21.97-23.49,23.41-.44.76-1.06,1.41-1.05,2.37l13.7,132.1c31.34-6.19,49.57,20.81,81.22,7.41,20.5-8.68,21.41-23.7,33.76-38.32,5.71-6.75,13.36-12.49,21.18-16.57-49.84-25.31-94.46-62.66-122.44-111.52ZM277.59,241.57h-80.09l-19.33,180.27c.26,6.31,3.84,13.3,10.7,14.23,16.29,2.21,16.06-10.9,18.57-22.71,6.9-32.46,9.91-73.69,19.22-104.32,3.95-12.99,18.2-12.53,22.28-.5l22.37,119.47c5.03,11.99,22.49,10.61,25.67-1.78l-19.38-184.67ZM250.13,437.23l-11.45-59.48-12.57,59.48h24.03Z"/><path class="cls-2" d="M299.99,202.27v-55.11c0-3.81-6.94-8.5-10.92-8.66-4.36-.18-12.01,4.34-12.01,8.66v71.49h-77.96v-69.2c0-3.69-5.24-10.32-9.19-10.85s-12.21,3.05-12.21,7.42v55.12c-1.99.5-2.28-.82-3.44-1.71-33.61-25.73-23.87-49.19-8.55-82.82,5.82-12.78,11.68-18.09,26.29-19.42,24.12-2.2,67.01-1.77,91.46-.07,9.85.69,17.95,3.12,23.88,11.55,4.33,6.15,18.07,42.37,18.81,49.75,1.92,19.22-13.21,32.44-26.16,43.86Z"/><path class="cls-6" d="M277.59,241.57l19.38,184.67c-3.19,12.38-20.64,13.77-25.67,1.78l-22.37-119.47c-4.08-12.03-18.33-12.49-22.28.5-9.31,30.63-12.32,71.86-19.22,104.32-2.51,11.81-2.28,24.92-18.57,22.71-6.86-.93-10.44-7.91-10.7-14.23l19.33-180.27h80.09Z"/><path class="cls-4" d="M233.84,26.49c32.69-4.55,37.31,42.72,9.73,47.46-35.16,6.05-40.01-43.25-9.73-47.46Z"/></svg>