<?xml version="1.0" encoding="UTF-8"?><svg id="Layer_1" xmlns="http://www.w3.org/2000/svg" viewBox="0 0 340.42 360.12"><defs><style>.cls-1{fill:#6496ca;}.cls-2{fill:#080808;}.cls-3{fill:#df292b;}.cls-4{fill:#020202;}.cls-5{fill:#f18b24;}.cls-6{fill:#8fa365;}.cls-7{fill:#e8e7e2;}.cls-8{fill:#e7e6e2;}.cls-9{fill:#f5ba91;}.cls-10{fill:#030303;}.cls-11{fill:#767dd4;}.cls-12{fill:#8ea364;}.cls-13{fill:#040302;}.cls-14{fill:#f89027;}.cls-15{fill:#040404;}.cls-16{fill:#fafafa;}.cls-17{fill:#e8af35;}.cls-18{fill:#070707;}</style></defs><path class="cls-4" d="M132.34,54.52c-5.72-2.18-10.28-3.84-13.99-9.13-9.24-13.17-1.72-29.05,13.05-33.06,1.42-.38,3.59.19,4.51-.33.27-.15,2.23-3.91,3.46-5.13,9.03-8.92,23.91-9.01,33.13-.36,1.43,1.35,3.55,5.32,3.84,5.49.92.52,3.1-.06,4.51.33,21.17,5.75,22.76,31.67,3.49,40.82l.03,28.75c2.97-.12,6.63-.12,9.2,1.59,10.11,6.76-10.46,17.14-12.52,21.66-.6,1.31-.54,2.63-.31,4.01l2.14,7.97c12.52-26.04,42.04-41.65,70.52-38.35,5.16-10.77,14.52-19.85,24.88-25.51,1.78-.98,8.89-3.45,9.24-3.8.29-.29,1.14-3.61,2.09-5.02,11.14-16.57,35.86-6.5,32.85,12.9-1.87,12.02-16.38,18.72-26.84,12.44-2.4-1.44-5.86-6.83-6.56-7.25-1.91-1.14-9.39,3.86-11.26,5.24s-13.52,12.26-11.65,14.11c18.63,4.25,30.77,17.08,41.2,32.31,1.12,1.63,1.71,4.15,2.64,5.38,1.36,1.81,4.67,3.69,6.58,6.31,1.12,1.54,3.66,7.33,4.01,7.58.57.4,5.01,1.1,6.7,1.87,17.69,8.07,17.34,34.09.11,42.45-.8.39-5.54,2.34-5.85,2.34h-48.69c1.92,26.62-.2,53.5-5.43,79.63-2.51,12.54-8.81,29.08-10.1,40.8-1.86,16.86,1.87,37.26-.06,53.93-.42,3.65-2.6,5.68-6.3,5.64l-132.3-.2c-2.29-.65-3.87-2.39-4.24-4.76-.61-3.93.9-24.94-.04-25.83l-51.28-6.08-2.72-4.77-.14-83.84c-.3-1.02-2.65-3.01-3.59-3.91-3.4-3.27-18.98-15.41-19.92-18.32-1.12-3.46.14-4.66,1.75-7.33,6.95-11.47,22.58-27.46,27.46-38.52,3.07-6.96.07-21.38,9.06-22.44l99.66.06,2.69-11.99c-4.48-1.03-16.57-10.52-20.24-9.49-4.63,2.14-16.26,11.21-20.97,9.06-1.66-.76-3.76-3.94-3.71-5.88.1-4.09,4.55-17.41,3.61-20.21l-13.89-12.77c-5.58-7.96,2.91-12.07,10.23-10.98v-27.38ZM153.89,12.3c-7.77,1.4-7.71,8.99-11.52,10.98-4.57,2.38-10.45-1.35-14.53,4.97s.6,13.23,7.85,13.91c9.75.91,32.45,1.07,42.03-.03,8.54-.98,12.07-11.61,4.5-16.5-4.02-2.59-7.68-.56-11.43-2.07-2.84-1.14-3.36-4.66-5.13-6.87-2.89-3.62-7.18-5.21-11.77-4.38ZM304.64,48.27c-6.9,1.51-5.38,13.62,3.41,11.7,6.9-1.51,5.38-13.62-3.41-11.7ZM173.34,54.12h-29v25.5c5.82-5.67,7.98-27.68,19.41-17.95l9.59,18.7v-26.25ZM176.59,92.37c-3.16-.4-9.43-.27-11.96-1.92-3.23-2.11-3.4-8.59-6.78-10.83-2.8,9.87-6.71,13.21-17.26,12.75-1.09.91,6.05,6.87,6.75,7.87,3.35,4.81-.31,8.64,0,13.87.74.84,6.78-3.76,8.22-4.14,6.64-1.78,8.48,2.69,14.27,4.14-.02-4.27-2.5-8.51-1.16-12.79,1.2-3.83,7.13-5.14,7.91-8.95ZM187.09,144.12h12c5.04-39.64,54.52-56.38,82.23-27.12l12.26-2.89c.34-1.3-.54-1.5-1.12-2.25-8.66-11.3-25.53-20.02-39.72-21.03-34.07-2.41-60.83,19.83-65.66,53.28ZM211.09,144.12h12.75c3.46-14.94,20.03-22.21,33.78-15.4,2.33,1.15,6.89,6.05,8.89,4.81l5.21-9.28c-20.77-20.36-55.66-8.46-60.62,19.88ZM291.15,126.3c-4.95.79-10.59,5.22-12.85,9.64-1.22,2.39-1.42,6.25-3.46,7.79s-5.31,1.08-7.91,1.84c-12.67,3.73-10.61,21.16,2.29,22.54,11.11,1.19,39.2,1.24,50.25,0,13.03-1.46,14.75-18.87,2.29-22.54-2.75-.81-6.44-.33-8.32-2.18-1.65-1.63-2.3-6.48-4.21-9.29-4.04-5.93-10.97-8.94-18.07-7.81ZM236.59,144.12h13.12l3.37-4.49c-5.79-2.96-13.67-1.74-16.5,4.49ZM72.34,230v24.12h15.38c6.56,0,12.48-10.2,18.77-5.51,9.01,6.72-11.28,16.51-17.27,16.51h-16.88v47.54l49.69,5.47c1.4-.03,4.31,2.98,4.31,3.96v26.03h120v-49.87c0-5.87,7.53-27.87,9.24-35.76,4.17-19.28,6.46-38.2,7.3-57.95l-.76-25.41c-9.27-3.99-16.21-12.56-15.78-23.01H79.84s-2.09,14.79-2.09,14.79l-26.98,38.1c6.47,7.7,15.63,12.79,21.57,20.99Z"/><path class="cls-15" d="M239.4.3c21.94-3.45,34.13,23.74,17.05,37.3-8.32,6.61-17.88,5.52-26.63.34-2.82,3.41-5.08,7.53-6.2,11.83-1.55,5.96.48,19.21-9.57,16.01-7.39-2.35-2.27-19.56-.1-24.93,1.44-3.57,8.8-13.38,8.95-14.21.24-1.26-.83-5.63-.57-8.17.86-8.42,8.69-16.87,17.06-18.19ZM241.66,12.28c-10.79,1.76-8.96,18.91,2.71,17.8,11.62-1.1,9.8-19.84-2.71-17.8Z"/><path class="cls-15" d="M65.61,116.36c-4.2,17.16-26.99,21.7-37.38,7-15.46-21.87,16.03-46.9,33.93-24.93,1.11,1.36,2.59,4.95,3.47,5.53,1.26.84,7.52,1.91,9.92,2.83,6.22,2.4,21.16,12.36,20.86,19.68-.17,4.13-3.85,6.35-7.76,5.49-2.38-.52-7.74-7.98-10.8-10.22-3.76-2.76-7.81-4.13-12.24-5.38ZM43.66,102.28c-10.79,1.76-8.96,18.91,2.71,17.8,11.62-1.1,9.8-19.84-2.71-17.8Z"/><path class="cls-10" d="M81.16,42.32c11.09-1.57,21.07,5.97,21.24,17.42.04,2.82-1.72,7.36-1.41,8.84.26,1.21,3.56,5.08,4.48,6.79,4.61,8.54,10.86,24.85,8.71,34.47-1.16,5.2-8.88,5.91-11.28,1.1-.98-12.26-3.34-24.06-11.03-33.95-12.94,4.44-26.23-3.81-25.57-18,.38-8.04,6.81-15.52,14.85-16.66ZM82.64,54.27c-6.9,1.51-5.38,13.62,3.41,11.7,6.9-1.51,5.38-13.62-3.41-11.7Z"/><path class="cls-18" d="M19.69,56.59c5.41-.47,16.37-1.42,16.7,6.17.4,9.14-12.36,5.83-18.33,6.45-5.11.53-13.01,5.6-16.57.64-6.96-9.69,12.4-12.75,18.21-13.26Z"/><path class="cls-2" d="M51.89,66.27c4.22-.92,11.17,4.75,13.3,8.14,3.58,5.68-1.41,11.72-7.65,9.15-.54-.22-8.42-7.15-8.79-7.71-2.29-3.5-1.13-8.64,3.14-9.58Z"/><path class="cls-9" d="M72.34,230.37c-5.97-8.24-15.17-13.36-21.68-21.1l27.11-38.3,2.1-14.86h166.47c-.43,10.45,6.5,19.01,15.78,23.01l.76,25.41c-.84,19.75-3.13,38.67-7.3,57.95-1.71,7.89-9.24,29.89-9.24,35.76v49.87h-120v-25.38c0-.98-2.91-3.97-4.31-3.94l-49.69-5.44v-47.25h16.88c5.99,0,26.27-10.69,17.27-18.02-6.28-5.11-12.21,6.02-18.77,6.02h-15.38v-23.75ZM90.88,183.27c-5.1,1.54-3.71,7.85-1.88,11.32,7.51,14.26,26.3,19.51,40.59,12.39,5.68-2.83,19.89-16.16,12.9-22.39-6.49-5.77-9.5,2.82-12.41,6.37-6.84,8.35-19.54,9.76-27.35,1.89-3.84-3.87-4.59-11.79-11.85-9.59Z"/><path class="cls-7" d="M291.15,126.3c7.1-1.13,14.03,1.88,18.07,7.81,1.91,2.81,2.56,7.66,4.21,9.29,1.88,1.85,5.58,1.37,8.32,2.18,12.46,3.67,10.74,21.08-2.29,22.54-11.05,1.24-39.15,1.19-50.25,0-12.89-1.38-14.96-18.81-2.29-22.54,2.6-.76,5.94-.36,7.91-1.84s2.24-5.41,3.46-7.79c2.26-4.42,7.9-8.86,12.85-9.64Z"/><path class="cls-14" d="M187.09,144.12c4.83-33.46,31.59-55.7,65.66-53.28,14.19,1.01,31.06,9.73,39.72,21.03.58.75,1.45.95,1.12,2.25l-12.26,2.89c-27.72-29.26-77.19-12.52-82.23,27.12h-12Z"/><path class="cls-8" d="M153.89,12.3c4.59-.83,8.88.76,11.77,4.38,1.77,2.21,2.29,5.73,5.13,6.87,3.75,1.51,7.42-.53,11.43,2.07,7.57,4.89,4.04,15.52-4.5,16.5-9.58,1.1-32.28.94-42.03.03-7.25-.68-12.08-7.35-7.85-13.91s9.96-2.59,14.53-4.97c3.81-1.98,3.76-9.58,11.52-10.98Z"/><path class="cls-6" d="M211.09,144.12c4.96-28.34,39.85-40.24,60.62-19.88l-5.21,9.28c-2,1.24-6.55-3.65-8.89-4.81-13.75-6.81-30.32.46-33.78,15.4h-12.75Z"/><path class="cls-17" d="M176.59,92.37c-.78,3.81-6.71,5.12-7.91,8.95-1.34,4.28,1.13,8.52,1.16,12.79-5.8-1.46-7.63-5.92-14.27-4.14-1.44.38-7.47,4.98-8.22,4.14-.31-5.23,3.35-9.06,0-13.87-.7-1-7.83-6.97-6.75-7.87,10.55.46,14.46-2.88,17.26-12.75,3.39,2.24,3.55,8.73,6.78,10.83,2.52,1.65,8.79,1.52,11.96,1.92Z"/><path class="cls-16" d="M173.34,54.12v26.25l-9.59-18.7c-11.43-9.73-13.59,12.28-19.41,17.95v-25.5h29Z"/><path class="cls-5" d="M304.64,48.27c8.79-1.92,10.31,10.2,3.41,11.7-8.79,1.92-10.31-10.2-3.41-11.7Z"/><path class="cls-11" d="M236.59,144.12c2.83-6.24,10.71-7.45,16.5-4.49l-3.37,4.49h-13.12Z"/><path class="cls-1" d="M241.66,12.28c12.52-2.04,14.34,16.7,2.71,17.8-11.67,1.11-13.5-16.05-2.71-17.8Z"/><path class="cls-12" d="M43.66,102.28c12.52-2.04,14.34,16.7,2.71,17.8-11.67,1.11-13.5-16.05-2.71-17.8Z"/><path class="cls-3" d="M82.64,54.27c8.79-1.92,10.31,10.2,3.41,11.7-8.79,1.92-10.31-10.2-3.41-11.7Z"/><path class="cls-13" d="M90.88,183.27c7.26-2.2,8.01,5.72,11.85,9.59,7.81,7.87,20.51,6.46,27.35-1.89,2.91-3.55,5.92-12.14,12.41-6.37,7,6.22-7.22,19.56-12.9,22.39-14.29,7.12-33.08,1.87-40.59-12.39-1.83-3.47-3.22-9.78,1.88-11.32Z"/></svg>