<?xml version="1.0" encoding="UTF-8"?><svg id="Layer_1" xmlns="http://www.w3.org/2000/svg" viewBox="0 0 646.47 645.76"><defs><style>.cls-1{fill:#fadcdc;}.cls-2{fill:#fcd862;}.cls-3{fill:#f6f6f6;}.cls-4{fill:#f2a069;}.cls-5{fill:#090909;}.cls-6{fill:#f9dbdb;}.cls-7{fill:#f6d8d8;}.cls-8{fill:#fcdddd;}.cls-9{fill:#7283b0;}.cls-10{fill:#0d0d0d;}.cls-11{fill:#0f0f0f;}.cls-12{fill:#0e0e0e;}.cls-13{fill:#0b0b0b;}.cls-14{fill:#fbdcdc;}.cls-15{fill:#f24b59;}.cls-16{fill:#fbdddd;}.cls-17{fill:#101010;}</style></defs><path class="cls-13" d="M58.17,0c6.32,4.26,9.02,10.23,3.15,16.39L10.7,42.52c-9.17-.61-13.62-7.88-8.59-16L50.61,0h7.56Z"/><path class="cls-13" d="M646.47,593.46v6.31c-10.33,11.72-19.69,25.82-30.29,37.17-1.54,1.65-6.12,6.92-7.55,7.58-8.68,4.01-18.07-6.45-11.89-14.42,7.39-6.29,30.9-41.58,37.8-42.92,6.52-1.27,8.4,1.77,11.94,6.29Z"/><path class="cls-13" d="M591,0c14.63,5.25,32.1,3.72,46.71,8.13,4.6,1.39,5.92,3.41,8.76,7v6.31l-9.39,6.12c-14.9-5.01-40.05-3.51-53.64-9.28-9.12-3.87-7.79-13.72,0-18.28h7.56Z"/><path class="cls-3" d="M591,0h55.47v15.13c-2.84-3.59-4.16-5.61-8.76-7-14.61-4.41-32.08-2.88-46.71-8.13Z"/><path class="cls-11" d="M312.82,0c14.05,4.83,5.78,24.91-7,17.71-7.46-4.2-4.38-12.9.7-17.71h6.3Z"/><path class="cls-13" d="M519.2,144.75c2.85-.85,7.35-.78,9.89.92l37.11,38.53c6.93,8.05-3.55,19.59-12.54,13.81-5.18-3.33-30.97-29.65-35.33-35.28-4.02-5.19-8.21-15.29.86-17.98Z"/><path class="cls-13" d="M380.59,55.22c9.13-2.39,16.59,6.82,10.96,14.79l-39.67,38.49c-10.14,3.45-17.14-4.1-12.65-13.92,9.3-6.24,32.72-37.1,41.36-39.37Z"/><path class="cls-13" d="M48.99,558.5c4.09,4.09,2.94,9.5.14,13.94-8.11,12.85-23.56,25.38-32.03,38.58-9.26,7.29-21.53-.22-15.49-11.73,11.39-11.36,20.76-27.51,31.96-38.65,4.43-4.41,9.99-7.59,15.43-2.14Z"/><path class="cls-13" d="M162.48,23.66c8.23-.77,42.28,20.68,52.47,23.87,7.88,6.28,1.96,19.54-8.06,16.97l-49.58-23.63c-6.63-5.3-3.28-16.43,5.17-17.22Z"/><path class="cls-13" d="M542.66,410.99c3.64-3.33,7.98-3.23,12.11-.92,7.38,4.14,29.88,23.58,36.68,30.14,4.4,4.24,7.25,5.63,6.22,12.53-1.03,6.91-7.78,8.4-13.76,6.34-6.96-7.69-42.36-31.37-43.96-39.34-.62-3.08.4-6.64,2.7-8.76Z"/><path class="cls-13" d="M114.54,156.09c4-1.19,8.84-.15,11.8,2.8,1.92,2.72,1.38,7.95,1.03,11.32-.82,7.89-8.23,39.81-11.11,46.89-4.66,11.43-19.61,7.7-18.94-3.7.44-7.52,9.24-43.61,12.16-51.01.95-2.4,2.3-5.47,5.06-6.29Z"/><path class="cls-5" d="M28.81,272.13c1.84-.42,4.14-.61,5.99-.27,6.04,1.14,33.31,34.41,41.08,39.65,4.89,10.29-3.98,18.88-13.88,12.62-3.77-2.39-33.81-32.47-36.62-36.51-3.77-5.44-3.94-13.8,3.42-15.49Z"/><path class="cls-11" d="M468.83,84.27c8.15,7.51-3.17,23.68-12.95,14.83s3.61-23.44,12.95-14.83Z"/><path class="cls-12" d="M604.36,84.27c2.53-2.39,10.88-2.5,13.62.23,5.71,5.69,1.48,17.33-6.87,17.04-9.08-.31-12.46-11.88-6.74-17.27Z"/><path class="cls-10" d="M6.12,162.37c16.32-4.91,17.19,24.11-.98,18.11-7.64-2.52-6.25-15.94.98-18.11Z"/><path class="cls-11" d="M86.79,626.51c14.06-4.23,16.97,15.4,7.05,18.39-13.78,4.14-16.91-15.42-7.05-18.39Z"/><path class="cls-11" d="M299.85,198.97c13.78-4.14,16.91,15.42,7.05,18.39-13.78,4.14-16.91-15.42-7.05-18.39Z"/><path class="cls-17" d="M260.77,110.69c13.04-3.92,17.78,14.54,6.74,18.08-13.74,4.41-16.39-15.18-6.74-18.08Z"/><path class="cls-17" d="M88.08,72.85c12.8-2.83,15.61,15.45,5.76,18.4-13.84,4.14-17.34-15.84-5.76-18.4Z"/><path class="cls-12" d="M108.25,400.74c17.2-3.81,15.33,23.49-.99,18.11-7.21-2.38-6.98-16.35.99-18.11Z"/><path class="cls-12" d="M526.78,35c16.32-4.86,16.79,23.45-.01,18.41-8.25-2.47-7.32-16.23.01-18.41Z"/><path class="cls-10" d="M603.71,505.4c12.45-2.56,15.9,15.09,6.71,18.13-15.65,5.17-17.01-16.01-6.71-18.13Z"/><path class="cls-12" d="M560.82,562.17c12.69-3.82,17.38,14.71,6.73,18.1-13.69,4.36-17.05-15-6.73-18.1Z"/><path class="cls-10" d="M171.3,289.7c12.22-2.25,15.21,18.89,2.03,19.61-11.72.64-12.86-17.62-2.03-19.61Z"/><path class="cls-10" d="M603.69,371.75c15.66-3.54,16.23,23.48-.97,18.09-7.85-2.46-6.68-16.36.97-18.09Z"/><path class="cls-6" d="M244.75,234.02c.57,5.1,3.65,10.27,6.08,14.72,1.21,2.22,3.57,8.18,6.53,7.98-1.81,1.08-5.19,6.9-5.03,9.37.34,5.12,16.35,20.82,20.82,24.65,4.02,3.45,23.19,15.18,23.97,16.41,1.79,2.81-1.66,10.15-3.98,12.57-4.14,1.3-29.03-18.06-33.28-21.99-25.51-23.55-45.47-62.25-47.87-97.15-.39-5.7-2.07-21.31,6.72-20.53,10.2,3.39,6.25,13.55,7.3,21.64,1.46,11.33,3.05,36,18.75,32.32Z"/><path class="cls-2" d="M346.56,355.16c-2.43-19.67-19.71-21.28-35.24-25.91l4.51-12.65c19.27,6.27,39.67,8.42,59.71,5.13,5.73,53.15,80.44,53.36,86.97.02,20.49,3.28,39.96.74,59.67-5.16l4.53,12.66c-9.33,3.62-23.11,4.25-30,12.23-1.2,1.39-5.24,8.65-5.24,9.89v150.71h-74.34c3.59-8.4,10.04-15.7,14.52-23.94,12.8-23.56,23.64-59.53,20.77-86.42-2.44-22.82-35.58-28.18-47.68-8.62-5.69,9.19-2.9,16.68-4.15,26.12-3.79,28.79-18.69,57.67-40.82,76.43-3.66,3.1-8.77,6.99-13.19,8.87v-139.36Z"/><path class="cls-9" d="M491.46,520.62v106.15h-60.66v-44.14c14.96,4.4,19.34-16.61,5.49-18.85-5.69-.92-21.12-.7-27.17-.13-16.93,1.59-13.77,22.39,3.15,18.98v44.14h-64.02v-73.92c17.89-8.47,35.3-18.31,49.62-32.22h93.59Z"/><path class="cls-8" d="M375.21,197.13h87.62c3.42,6.57,1.96,20.5.33,28.08-7.65,35.63-55.23,46.29-77.83,17.93-4.23-5.31-10.12-17.28-10.12-23.93v-22.07Z"/><path class="cls-6" d="M620.02,180.11c10.67-.27,6.27,22.27,5.28,29.14-6.71,46.19-37.63,90.47-79.81,110.49-2.19-2.61-5.73-9.62-3.89-12.57.9-1.44,22.18-15,26.54-18.89,27.12-24.22,40.17-55.94,44.71-91.48.75-5.9-2.33-16.45,7.17-16.69Z"/><path class="cls-4" d="M461.58,178.6h-85.73c10.51-45.52,76.9-46.12,85.73,0Z"/><path class="cls-1" d="M425.02,278.01c-1.01,10.16,2.93,22.27,10.11,29.62,5.84,5.98,10.27,2.93,8.69,13.78-3.17,21.76-33.12,26.36-45.27,8.94-11.59-16.6,3.07-19.22,8.21-30.91,2.95-6.72,3.53-14.2,3.15-21.45h15.12Z"/><path class="cls-5" d="M257.21,256.63c9.31-5.57,19.12,11.67,25.73,17.63,12.48,11.26,29.92,21.05,46.2,25.44,17.88,4.82,54.58,9.61,60.41-14.39,3.92-16.13-.91-12.5-9.79-19.91-25.62-21.37-27.25-50.5-24.37-82.15,6.91-75.87,121.03-80,126.75,6.14,2.37,35.63-3.56,68.61-38.99,84.43-2.47,35.53,44.74,32.16,67.92,24.94,40.22-12.53,73.18-50.57,80.04-92.16,2.31-14.04-1.53-29.65,11.27-39.01,15.42-11.26,36.23-4.44,41.87,13.61-.61,8.08.83,17.21,0,25.14-5.83,55.81-48.61,114.04-100.55,135.12-5.68,2.3-32.42,9.04-33.71,12.8l1.1,278.19c-.48,5.49-1.52,11.08-7.26,12.85l-166.43.36c-4.41,1-9.38-6.19-9.38-9.48v-77.56c-3.62-.21-8.01,1.81-8.75,5.7-1.69,22.23,2.17,47.5-.02,69.34-.5,5.03-2.03,10.07-7.21,11.64h-169.78s-8.13-18.17-7.22-26.02c.67-5.73,3.06-8.01,8.85-8.17,8.99-.26,10.87,7.41,10.09,15.66h145.41v-64.21c-.43-1.55,2.1-8.53,3.09-10.35,5.97-10.94,22.26-11.72,33.35-15.82,38.4-14.18,70.65-44.65,86.49-82.47,2.34-5.59,6.44-16.16,7.25-21.86.19-1.36.87-2.16-.7-3.23l-12.66-1.85c-13.69,64.54-79.88,113.71-146.24,102.15-4.96,53.69-81.32,53.66-87,0-16.99,4.28-34.29,1.9-50.95-2.62-46.73-12.68-84.26-52.51-95.3-99.54l-12.6,1.27c2.46,22.24,14.55,44.34,28.49,61.68,18.54,23.04,41.6,37.8,69.17,48.09,13.87,5.18,29.73,4.1,32.05,23.43,1.02,8.48,1.77,22.29-9.95,21.93-14.85-.45-5.56-18.32-10.06-22.09-49.78-11.75-92.86-43.86-115.64-89.89-11.47-23.18-39-105.73,10.2-101.04,26.78,2.55,22.05,25.36,25.1,44.28,7.48,46.4,43.38,84.52,89.13,94.97,21.84,4.99,56.91,6,56.52-25.32-.06-5.23-7.99-7.44-11.73-10.67-23.49-20.29-26.6-45.04-24.6-75,5.91-88.69,121.48-83.38,127.36-5.11,2.49,33.12.55,62.53-28.13,82.94-7.6,5.41-11.99,2.68-11,14.22,2.5,29.24,75.29,13.89,75.29,13.89l.03-151.56c-51.93-13.18-95.96-46.36-118.39-95.53-9.25-20.28-17.77-53.36-14.75-75.54,3.6-26.46,46.82-27.17,51.08,2.73.71,4.95-.2,9.84.49,14.59,1.11,7.7,9.77,32.41-.16,34.73-15.64,3.66-17.23-20.93-18.69-32.22-1.04-8.06,2.9-18.19-7.27-21.57-8.76-.78-7.09,14.78-6.7,20.46,2.39,34.78,22.29,73.36,47.72,96.83,4.24,3.91,29.05,23.22,33.17,21.92,2.31-2.41,5.75-9.73,3.97-12.53-.78-1.22-19.89-12.92-23.89-16.36-4.46-3.82-20.42-19.46-20.76-24.57-.16-2.46,3.21-8.26,5.02-9.34ZM461.58,178.6c-8.83-46.12-75.22-45.52-85.73,0h85.73ZM620.02,180.11c-9.5.24-6.42,10.79-7.17,16.69-4.54,35.54-17.59,67.26-44.71,91.48-4.36,3.89-25.64,17.45-26.54,18.89-1.84,2.95,1.7,9.96,3.89,12.57,42.18-20.01,73.1-64.3,79.81-110.49,1-6.87,5.39-29.41-5.28-29.14ZM375.21,197.13v22.07c0,6.65,5.89,18.62,10.12,23.93,22.6,28.36,70.18,17.7,77.83-17.93,1.63-7.57,3.09-21.51-.33-28.08h-87.62ZM425.02,278h-15.12c.39,7.24-.19,14.72-3.15,21.44-5.14,11.69-19.79,14.3-8.21,30.91,12.16,17.42,42.1,12.82,45.27-8.94,1.58-10.85-2.85-7.8-8.69-13.78-7.18-7.35-11.12-19.46-10.11-29.62ZM346.56,355.16v139.36c4.42-1.88,9.54-5.77,13.19-8.87,22.13-18.76,37.03-47.64,40.82-76.43,1.24-9.44-1.54-16.92,4.15-26.12,12.1-19.56,45.24-14.2,47.68,8.62,2.87,26.89-7.97,62.86-20.77,86.42-4.47,8.24-10.92,15.53-14.52,23.94h74.34v-150.71c0-1.25,4.04-8.51,5.24-9.89,6.9-7.98,20.67-8.62,30-12.23l-4.53-12.66c-19.7,5.91-39.17,8.44-59.67,5.16-6.53,53.34-81.24,53.13-86.97-.02-20.04,3.29-40.44,1.14-59.71-5.13l-4.51,12.65c15.53,4.62,32.81,6.24,35.24,25.91ZM269.96,385.83c-10.81-45.27-76.41-45.59-85.73,0h85.73ZM31.4,390.71c-2.3-2.29-9.99-2.51-11.68.96-1.18,2.41-1.29,17.01.58,18.4l12.67-.73c-.57-4.33,1.38-15.68-1.57-18.62ZM434.18,410.58v-18.29c0-2.89-9.99-5.98-12.91.96-2.02,4.81-.53,10.93-.96,16.07l13.87,1.26ZM270.74,406.05h-87.61v28.38c0,1.38,4.56,11.14,5.74,13.14,18.79,31.88,67.18,26.41,79.1-8.37.57-1.67,2.78-8.85,2.78-9.81v-23.33ZM231.97,486.93l-14.37-.23c-.28,11.2-2.09,20.89-9.41,29.7-5.23,6.29-8.64,3.41-5.44,15.54,5.8,22.02,44.48,22.57,48.22-.48,2.13-13.11-2-9.52-8.29-16.14-7.7-8.1-8.69-17.95-10.71-28.39ZM491.46,520.62h-93.59c-14.33,13.92-31.73,23.75-49.62,32.22v73.92h64.02v-44.14c-16.91,3.41-20.08-17.39-3.15-18.98,6.05-.57,21.48-.79,27.17.13,13.85,2.24,9.47,23.25-5.49,18.85v44.14h60.66v-106.15Z"/><path class="cls-15" d="M144.38,583.89c11.72.36,10.96-13.45,9.94-21.93-2.33-19.33-18.17-18.25-32.04-23.43-27.56-10.3-50.61-25.05-69.14-48.09-13.94-17.34-26.03-39.44-28.48-61.68l12.59-1.27c11.03,47.03,48.54,86.86,95.26,99.54,16.65,4.52,33.95,6.9,50.93,2.62,5.67,53.65,82.01,53.69,86.97,0,66.34,11.56,132.5-37.61,146.19-102.15l12.66,1.85c1.57,1.07.9,1.87.7,3.23-.81,5.71-4.9,16.27-7.24,21.86-15.83,37.82-48.08,68.29-86.46,82.47-11.09,4.1-27.37,4.88-33.34,15.82-.99,1.82-3.52,8.81-3.52,10.35v63.69h-144.93c.78-7.73-1.09-15.39-10.08-15.13v-27.75Z"/><path class="cls-16" d="M270.74,406.05v23.33c0,.96-2.21,8.15-2.78,9.81-11.92,34.78-60.31,40.25-79.1,8.37-1.18-1.99-5.74-11.76-5.74-13.14v-28.38h87.61Z"/><path class="cls-9" d="M269.96,385.83h-85.73c9.31-45.59,74.91-45.27,85.73,0Z"/><path class="cls-14" d="M231.97,487.16c2.02,10.44,3.01,20.29,10.71,28.39,6.29,6.62,10.43,3.03,8.29,16.14-3.75,23.05-42.43,22.5-48.22.48-3.2-12.13.21-9.25,5.44-15.54,7.32-8.81,9.13-18.5,9.41-29.7l14.37.23Z"/><path class="cls-7" d="M31.4,390.71c2.95,2.94,1,14.29,1.57,18.62l-12.67.73c-1.87-1.38-1.75-15.99-.58-18.4,1.69-3.47,9.38-3.25,11.68-.96Z"/><path class="cls-7" d="M434.18,410.58l-13.87-1.26c.43-5.14-1.06-11.26.96-16.07,2.92-6.94,12.91-3.85,12.91-.96v18.29Z"/></svg>